%TF.GenerationSoftware,KiCad,Pcbnew,(6.0.11)*%
%TF.CreationDate,2023-11-20T18:36:57+00:00*%
%TF.ProjectId,reaction_wheel,72656163-7469-46f6-9e5f-776865656c2e,rev?*%
%TF.SameCoordinates,Original*%
%TF.FileFunction,Soldermask,Top*%
%TF.FilePolarity,Negative*%
%FSLAX46Y46*%
G04 Gerber Fmt 4.6, Leading zero omitted, Abs format (unit mm)*
G04 Created by KiCad (PCBNEW (6.0.11)) date 2023-11-20 18:36:57*
%MOMM*%
%LPD*%
G01*
G04 APERTURE LIST*
%ADD10R,1.100000X1.100000*%
%ADD11C,1.100000*%
%ADD12C,1.665000*%
%ADD13R,0.300000X0.700000*%
%ADD14R,1.700000X1.000000*%
G04 APERTURE END LIST*
D10*
%TO.C,U6*%
X121396000Y-104690000D03*
D11*
X119396000Y-104690000D03*
%TD*%
D12*
%TO.C,U3*%
X115062000Y-78740000D03*
X115062000Y-81280000D03*
X115062000Y-83820000D03*
X115062000Y-86360000D03*
X115062000Y-88900000D03*
X115062000Y-91440000D03*
X115062000Y-93980000D03*
X115062000Y-96520000D03*
%TD*%
D10*
%TO.C,U7*%
X140208000Y-71120000D03*
D11*
X140208000Y-73120000D03*
%TD*%
D10*
%TO.C,U4*%
X134604000Y-104648000D03*
D11*
X132604000Y-104648000D03*
%TD*%
D12*
%TO.C,U5*%
X134620000Y-71120000D03*
X134620000Y-73660000D03*
X134620000Y-76200000D03*
X134620000Y-78740000D03*
X134620000Y-81280000D03*
X134620000Y-83820000D03*
X134620000Y-86360000D03*
X134620000Y-88900000D03*
X134620000Y-91440000D03*
X134620000Y-93980000D03*
X134620000Y-96520000D03*
X134620000Y-99060000D03*
X119380000Y-99060000D03*
X119380000Y-96520000D03*
X119380000Y-93980000D03*
X119380000Y-91440000D03*
X119380000Y-88900000D03*
X119380000Y-86360000D03*
X119380000Y-83820000D03*
X119380000Y-81280000D03*
X119380000Y-78740000D03*
X119380000Y-76200000D03*
X119380000Y-73660000D03*
X119380000Y-71120000D03*
%TD*%
D13*
%TO.C,U2*%
X128028000Y-104174000D03*
X128528000Y-104174000D03*
X129028000Y-104174000D03*
X129528000Y-104174000D03*
X129528000Y-102074000D03*
X129028000Y-102074000D03*
X128528000Y-102074000D03*
X128028000Y-102074000D03*
D14*
X128778000Y-103124000D03*
%TD*%
D13*
%TO.C,U1*%
X124472000Y-104174000D03*
X124972000Y-104174000D03*
X125472000Y-104174000D03*
X125972000Y-104174000D03*
X125972000Y-102074000D03*
X125472000Y-102074000D03*
X124972000Y-102074000D03*
X124472000Y-102074000D03*
D14*
X125222000Y-103124000D03*
%TD*%
M02*
