%TF.GenerationSoftware,KiCad,Pcbnew,(6.0.11)*%
%TF.CreationDate,2023-11-20T18:36:57+00:00*%
%TF.ProjectId,reaction_wheel,72656163-7469-46f6-9e5f-776865656c2e,rev?*%
%TF.SameCoordinates,Original*%
%TF.FileFunction,Legend,Top*%
%TF.FilePolarity,Positive*%
%FSLAX46Y46*%
G04 Gerber Fmt 4.6, Leading zero omitted, Abs format (unit mm)*
G04 Created by KiCad (PCBNEW (6.0.11)) date 2023-11-20 18:36:57*
%MOMM*%
%LPD*%
G01*
G04 APERTURE LIST*
%ADD10C,0.254000*%
%ADD11C,0.150000*%
%ADD12C,0.200000*%
%ADD13C,0.120000*%
%ADD14C,0.100000*%
%ADD15C,0.250000*%
G04 APERTURE END LIST*
D10*
%TO.C,U6*%
X120428380Y-103994523D02*
X120428380Y-105022619D01*
X120488857Y-105143571D01*
X120549333Y-105204047D01*
X120670285Y-105264523D01*
X120912190Y-105264523D01*
X121033142Y-105204047D01*
X121093619Y-105143571D01*
X121154095Y-105022619D01*
X121154095Y-103994523D01*
X122303142Y-103994523D02*
X122061238Y-103994523D01*
X121940285Y-104055000D01*
X121879809Y-104115476D01*
X121758857Y-104296904D01*
X121698380Y-104538809D01*
X121698380Y-105022619D01*
X121758857Y-105143571D01*
X121819333Y-105204047D01*
X121940285Y-105264523D01*
X122182190Y-105264523D01*
X122303142Y-105204047D01*
X122363619Y-105143571D01*
X122424095Y-105022619D01*
X122424095Y-104720238D01*
X122363619Y-104599285D01*
X122303142Y-104538809D01*
X122182190Y-104478333D01*
X121940285Y-104478333D01*
X121819333Y-104538809D01*
X121758857Y-104599285D01*
X121698380Y-104720238D01*
D11*
%TO.C,U3*%
X107950095Y-78724380D02*
X107950095Y-79533904D01*
X107997714Y-79629142D01*
X108045333Y-79676761D01*
X108140571Y-79724380D01*
X108331047Y-79724380D01*
X108426285Y-79676761D01*
X108473904Y-79629142D01*
X108521523Y-79533904D01*
X108521523Y-78724380D01*
X108902476Y-78724380D02*
X109521523Y-78724380D01*
X109188190Y-79105333D01*
X109331047Y-79105333D01*
X109426285Y-79152952D01*
X109473904Y-79200571D01*
X109521523Y-79295809D01*
X109521523Y-79533904D01*
X109473904Y-79629142D01*
X109426285Y-79676761D01*
X109331047Y-79724380D01*
X109045333Y-79724380D01*
X108950095Y-79676761D01*
X108902476Y-79629142D01*
D10*
%TO.C,U7*%
X138478380Y-76012523D02*
X138478380Y-77040619D01*
X138538857Y-77161571D01*
X138599333Y-77222047D01*
X138720285Y-77282523D01*
X138962190Y-77282523D01*
X139083142Y-77222047D01*
X139143619Y-77161571D01*
X139204095Y-77040619D01*
X139204095Y-76012523D01*
X139687904Y-76012523D02*
X140534571Y-76012523D01*
X139990285Y-77282523D01*
%TO.C,U4*%
X133636380Y-103952523D02*
X133636380Y-104980619D01*
X133696857Y-105101571D01*
X133757333Y-105162047D01*
X133878285Y-105222523D01*
X134120190Y-105222523D01*
X134241142Y-105162047D01*
X134301619Y-105101571D01*
X134362095Y-104980619D01*
X134362095Y-103952523D01*
X135511142Y-104375857D02*
X135511142Y-105222523D01*
X135208761Y-103892047D02*
X134906380Y-104799190D01*
X135692571Y-104799190D01*
%TO.C,U5*%
X125524380Y-69916523D02*
X125524380Y-70944619D01*
X125584857Y-71065571D01*
X125645333Y-71126047D01*
X125766285Y-71186523D01*
X126008190Y-71186523D01*
X126129142Y-71126047D01*
X126189619Y-71065571D01*
X126250095Y-70944619D01*
X126250095Y-69916523D01*
X127459619Y-69916523D02*
X126854857Y-69916523D01*
X126794380Y-70521285D01*
X126854857Y-70460809D01*
X126975809Y-70400333D01*
X127278190Y-70400333D01*
X127399142Y-70460809D01*
X127459619Y-70521285D01*
X127520095Y-70642238D01*
X127520095Y-70944619D01*
X127459619Y-71065571D01*
X127399142Y-71126047D01*
X127278190Y-71186523D01*
X126975809Y-71186523D01*
X126854857Y-71126047D01*
X126794380Y-71065571D01*
%TO.C,U2*%
X134160380Y-102174523D02*
X134160380Y-103202619D01*
X134220857Y-103323571D01*
X134281333Y-103384047D01*
X134402285Y-103444523D01*
X134644190Y-103444523D01*
X134765142Y-103384047D01*
X134825619Y-103323571D01*
X134886095Y-103202619D01*
X134886095Y-102174523D01*
X135430380Y-102295476D02*
X135490857Y-102235000D01*
X135611809Y-102174523D01*
X135914190Y-102174523D01*
X136035142Y-102235000D01*
X136095619Y-102295476D01*
X136156095Y-102416428D01*
X136156095Y-102537380D01*
X136095619Y-102718809D01*
X135369904Y-103444523D01*
X136156095Y-103444523D01*
%TO.C,U1*%
X117904380Y-102174523D02*
X117904380Y-103202619D01*
X117964857Y-103323571D01*
X118025333Y-103384047D01*
X118146285Y-103444523D01*
X118388190Y-103444523D01*
X118509142Y-103384047D01*
X118569619Y-103323571D01*
X118630095Y-103202619D01*
X118630095Y-102174523D01*
X119900095Y-103444523D02*
X119174380Y-103444523D01*
X119537238Y-103444523D02*
X119537238Y-102174523D01*
X119416285Y-102355952D01*
X119295333Y-102476904D01*
X119174380Y-102537380D01*
D12*
%TO.C,U6*%
X117446000Y-106390000D02*
X117446000Y-101890000D01*
X117446000Y-101890000D02*
X123346000Y-101890000D01*
X121396000Y-106390000D02*
X117446000Y-106390000D01*
X123346000Y-101890000D02*
X123346000Y-104690000D01*
D13*
%TO.C,U3*%
X116332000Y-97790000D02*
X101092000Y-97790000D01*
X101092000Y-97790000D02*
X101092000Y-77470000D01*
X116332000Y-77470000D02*
X116332000Y-97790000D01*
X101092000Y-77470000D02*
X116332000Y-77470000D01*
D12*
%TO.C,U7*%
X141908000Y-75070000D02*
X137408000Y-75070000D01*
X137408000Y-75070000D02*
X137408000Y-69170000D01*
X137408000Y-69170000D02*
X140208000Y-69170000D01*
X141908000Y-71120000D02*
X141908000Y-75070000D01*
%TO.C,U4*%
X130654000Y-106348000D02*
X130654000Y-101848000D01*
X136554000Y-101848000D02*
X136554000Y-104648000D01*
X130654000Y-101848000D02*
X136554000Y-101848000D01*
X134604000Y-106348000D02*
X130654000Y-106348000D01*
D14*
%TO.C,U5*%
X118110000Y-67310000D02*
X135890000Y-67310000D01*
X135890000Y-67310000D02*
X135890000Y-100330000D01*
X135890000Y-100330000D02*
X118110000Y-100330000D01*
X118110000Y-100330000D02*
X118110000Y-67310000D01*
D15*
%TO.C,U2*%
X127503000Y-104524000D02*
G75*
G03*
X127503000Y-104524000I-125000J0D01*
G01*
%TO.C,U1*%
X123947000Y-104524000D02*
G75*
G03*
X123947000Y-104524000I-125000J0D01*
G01*
%TD*%
M02*
