M48
; DRILL file {KiCad (6.0.11)} date Mon Nov 20 18:37:06 2023
; FORMAT={-:-/ absolute / inch / decimal}
; #@! TF.CreationDate,2023-11-20T18:37:06+00:00
; #@! TF.GenerationSoftware,Kicad,Pcbnew,(6.0.11)
; #@! TF.FileFunction,Plated,1,2,PTH
FMAT,2
INCH
; #@! TA.AperFunction,Plated,PTH,ViaDrill
T1C0.0157
; #@! TA.AperFunction,Plated,PTH,ComponentDrill
T2C0.0276
; #@! TA.AperFunction,Plated,PTH,ComponentDrill
T3C0.0437
%
G90
G05
T1
X4.9Y-3.97
X5.0Y-3.83
X5.04Y-3.97
X5.08Y-3.92
X5.15Y-3.05
T2
X4.7006Y-4.1217
X4.7794Y-4.1217
X5.2206Y-4.12
X5.2994Y-4.12
X5.52Y-2.8
X5.52Y-2.8787
T3
X4.53Y-3.1
X4.53Y-3.2
X4.53Y-3.3
X4.53Y-3.4
X4.53Y-3.5
X4.53Y-3.6
X4.53Y-3.7
X4.53Y-3.8
X4.7Y-2.8
X4.7Y-2.9
X4.7Y-3.0
X4.7Y-3.1
X4.7Y-3.2
X4.7Y-3.3
X4.7Y-3.4
X4.7Y-3.5
X4.7Y-3.6
X4.7Y-3.7
X4.7Y-3.8
X4.7Y-3.9
X5.3Y-2.8
X5.3Y-2.9
X5.3Y-3.0
X5.3Y-3.1
X5.3Y-3.2
X5.3Y-3.3
X5.3Y-3.4
X5.3Y-3.5
X5.3Y-3.6
X5.3Y-3.7
X5.3Y-3.8
X5.3Y-3.9
T0
M30
