%TF.GenerationSoftware,KiCad,Pcbnew,(6.0.11)*%
%TF.CreationDate,2023-11-20T18:36:57+00:00*%
%TF.ProjectId,reaction_wheel,72656163-7469-46f6-9e5f-776865656c2e,rev?*%
%TF.SameCoordinates,Original*%
%TF.FileFunction,Copper,L2,Bot*%
%TF.FilePolarity,Positive*%
%FSLAX46Y46*%
G04 Gerber Fmt 4.6, Leading zero omitted, Abs format (unit mm)*
G04 Created by KiCad (PCBNEW (6.0.11)) date 2023-11-20 18:36:57*
%MOMM*%
%LPD*%
G01*
G04 APERTURE LIST*
%TA.AperFunction,ComponentPad*%
%ADD10R,1.100000X1.100000*%
%TD*%
%TA.AperFunction,ComponentPad*%
%ADD11C,1.100000*%
%TD*%
%TA.AperFunction,ComponentPad*%
%ADD12C,1.665000*%
%TD*%
%TA.AperFunction,ViaPad*%
%ADD13C,0.800000*%
%TD*%
%TA.AperFunction,Conductor*%
%ADD14C,0.250000*%
%TD*%
G04 APERTURE END LIST*
D10*
%TO.P,U6,1,1*%
%TO.N,Net-(U1-Pad3)*%
X121396000Y-104690000D03*
D11*
%TO.P,U6,2,2*%
%TO.N,Net-(U1-Pad2)*%
X119396000Y-104690000D03*
%TD*%
D12*
%TO.P,U3,1,VCC*%
%TO.N,+3V3*%
X115062000Y-78740000D03*
%TO.P,U3,2,GND*%
%TO.N,GND*%
X115062000Y-81280000D03*
%TO.P,U3,3,SCL*%
%TO.N,Net-(U3-Pad3)*%
X115062000Y-83820000D03*
%TO.P,U3,4,SDA*%
%TO.N,Net-(U3-Pad4)*%
X115062000Y-86360000D03*
%TO.P,U3,5,XDA*%
%TO.N,unconnected-(U3-Pad5)*%
X115062000Y-88900000D03*
%TO.P,U3,6,XCL*%
%TO.N,unconnected-(U3-Pad6)*%
X115062000Y-91440000D03*
%TO.P,U3,7,AD0*%
%TO.N,unconnected-(U3-Pad7)*%
X115062000Y-93980000D03*
%TO.P,U3,8,INT*%
%TO.N,unconnected-(U3-Pad8)*%
X115062000Y-96520000D03*
%TD*%
D10*
%TO.P,U7,1,1*%
%TO.N,GND*%
X140208000Y-71120000D03*
D11*
%TO.P,U7,2,2*%
%TO.N,+3V3*%
X140208000Y-73120000D03*
%TD*%
D10*
%TO.P,U4,1,1*%
%TO.N,Net-(U2-Pad3)*%
X134604000Y-104648000D03*
D11*
%TO.P,U4,2,2*%
%TO.N,Net-(U2-Pad2)*%
X132604000Y-104648000D03*
%TD*%
D12*
%TO.P,U5,1,RAW*%
%TO.N,GND*%
X134620000Y-71120000D03*
%TO.P,U5,2,GND_1*%
%TO.N,+3V3*%
X134620000Y-73660000D03*
%TO.P,U5,3,RST*%
%TO.N,unconnected-(U5-Pad3)*%
X134620000Y-76200000D03*
%TO.P,U5,4,VCC*%
%TO.N,unconnected-(U5-Pad4)*%
X134620000Y-78740000D03*
%TO.P,U5,5,A3*%
%TO.N,unconnected-(U5-Pad5)*%
X134620000Y-81280000D03*
%TO.P,U5,6,A2*%
%TO.N,unconnected-(U5-Pad6)*%
X134620000Y-83820000D03*
%TO.P,U5,7,A1*%
%TO.N,unconnected-(U5-Pad7)*%
X134620000Y-86360000D03*
%TO.P,U5,8,A0*%
%TO.N,unconnected-(U5-Pad8)*%
X134620000Y-88900000D03*
%TO.P,U5,9,SCK*%
%TO.N,unconnected-(U5-Pad9)*%
X134620000Y-91440000D03*
%TO.P,U5,10,MISO*%
%TO.N,unconnected-(U5-Pad10)*%
X134620000Y-93980000D03*
%TO.P,U5,11,MOSI*%
%TO.N,unconnected-(U5-Pad11)*%
X134620000Y-96520000D03*
%TO.P,U5,12,DIO*%
%TO.N,unconnected-(U5-Pad12)*%
X134620000Y-99060000D03*
%TO.P,U5,13,D9*%
%TO.N,Net-(U2-Pad5)*%
X119380000Y-99060000D03*
%TO.P,U5,14,D8*%
%TO.N,Net-(U2-Pad6)*%
X119380000Y-96520000D03*
%TO.P,U5,15,D7*%
%TO.N,Net-(U1-Pad6)*%
X119380000Y-93980000D03*
%TO.P,U5,16,D6*%
%TO.N,Net-(U1-Pad5)*%
X119380000Y-91440000D03*
%TO.P,U5,17,D5*%
%TO.N,unconnected-(U5-Pad17)*%
X119380000Y-88900000D03*
%TO.P,U5,18,D4*%
%TO.N,unconnected-(U5-Pad18)*%
X119380000Y-86360000D03*
%TO.P,U5,19,D3*%
%TO.N,Net-(U3-Pad3)*%
X119380000Y-83820000D03*
%TO.P,U5,20,D2*%
%TO.N,Net-(U3-Pad4)*%
X119380000Y-81280000D03*
%TO.P,U5,21,GND_2*%
%TO.N,unconnected-(U5-Pad21)*%
X119380000Y-78740000D03*
%TO.P,U5,22,GND_3*%
%TO.N,unconnected-(U5-Pad22)*%
X119380000Y-76200000D03*
%TO.P,U5,23,RXI*%
%TO.N,unconnected-(U5-Pad23)*%
X119380000Y-73660000D03*
%TO.P,U5,24,TXO*%
%TO.N,unconnected-(U5-Pad24)*%
X119380000Y-71120000D03*
%TD*%
D13*
%TO.N,+3V3*%
X124460000Y-100838000D03*
X130810000Y-77470000D03*
X128016000Y-100838000D03*
%TO.N,Net-(U2-Pad5)*%
X129032000Y-99568000D03*
%TO.N,Net-(U2-Pad6)*%
X127000000Y-97282000D03*
%TD*%
D14*
%TO.N,+3V3*%
X128016000Y-100838000D02*
X129794000Y-100838000D01*
X124460000Y-100838000D02*
X128016000Y-100838000D01*
X130810000Y-99822000D02*
X130810000Y-77470000D01*
X129794000Y-100838000D02*
X130810000Y-99822000D01*
%TO.N,Net-(U2-Pad5)*%
X129032000Y-99568000D02*
X128524000Y-99060000D01*
X128524000Y-99060000D02*
X119380000Y-99060000D01*
%TO.N,Net-(U2-Pad6)*%
X127000000Y-97282000D02*
X126238000Y-96520000D01*
X126238000Y-96520000D02*
X119380000Y-96520000D01*
%TD*%
%TA.AperFunction,Conductor*%
%TO.N,GND*%
G36*
X142435121Y-68601002D02*
G01*
X142481614Y-68654658D01*
X142493000Y-68707000D01*
X142493000Y-106807000D01*
X142472998Y-106875121D01*
X142419342Y-106921614D01*
X142367000Y-106933000D01*
X115697000Y-106933000D01*
X115628879Y-106912998D01*
X115582386Y-106859342D01*
X115571000Y-106807000D01*
X115571000Y-104679455D01*
X118640825Y-104679455D01*
X118641512Y-104686462D01*
X118641512Y-104686465D01*
X118644311Y-104715010D01*
X118657255Y-104847025D01*
X118710402Y-105006791D01*
X118714049Y-105012813D01*
X118714050Y-105012815D01*
X118790060Y-105138322D01*
X118797624Y-105150812D01*
X118802513Y-105155875D01*
X118802514Y-105155876D01*
X118856289Y-105211561D01*
X118914586Y-105271929D01*
X118920483Y-105275788D01*
X119049577Y-105360266D01*
X119049581Y-105360268D01*
X119055475Y-105364125D01*
X119213289Y-105422815D01*
X119220270Y-105423746D01*
X119220272Y-105423747D01*
X119258647Y-105428867D01*
X119380183Y-105445083D01*
X119387194Y-105444445D01*
X119387198Y-105444445D01*
X119540843Y-105430462D01*
X119547864Y-105429823D01*
X119554566Y-105427645D01*
X119554568Y-105427645D01*
X119701298Y-105379970D01*
X119701301Y-105379969D01*
X119707997Y-105377793D01*
X119852623Y-105291578D01*
X119857717Y-105286727D01*
X119857721Y-105286724D01*
X119886049Y-105259748D01*
X120645500Y-105259748D01*
X120646707Y-105265816D01*
X120648691Y-105275788D01*
X120657133Y-105318231D01*
X120701448Y-105384552D01*
X120767769Y-105428867D01*
X120779938Y-105431288D01*
X120779939Y-105431288D01*
X120820184Y-105439293D01*
X120826252Y-105440500D01*
X121965748Y-105440500D01*
X121971816Y-105439293D01*
X122012061Y-105431288D01*
X122012062Y-105431288D01*
X122024231Y-105428867D01*
X122090552Y-105384552D01*
X122134867Y-105318231D01*
X122143310Y-105275788D01*
X122145293Y-105265816D01*
X122146500Y-105259748D01*
X122146500Y-104637455D01*
X131848825Y-104637455D01*
X131849512Y-104644462D01*
X131849512Y-104644465D01*
X131852258Y-104672468D01*
X131865255Y-104805025D01*
X131918402Y-104964791D01*
X131922049Y-104970813D01*
X131922050Y-104970815D01*
X131939791Y-105000108D01*
X132005624Y-105108812D01*
X132010513Y-105113875D01*
X132010514Y-105113876D01*
X132040367Y-105144789D01*
X132122586Y-105229929D01*
X132128483Y-105233788D01*
X132257577Y-105318266D01*
X132257581Y-105318268D01*
X132263475Y-105322125D01*
X132421289Y-105380815D01*
X132428270Y-105381746D01*
X132428272Y-105381747D01*
X132466647Y-105386867D01*
X132588183Y-105403083D01*
X132595194Y-105402445D01*
X132595198Y-105402445D01*
X132748843Y-105388462D01*
X132755864Y-105387823D01*
X132762566Y-105385645D01*
X132762568Y-105385645D01*
X132909298Y-105337970D01*
X132909301Y-105337969D01*
X132915997Y-105335793D01*
X133060623Y-105249578D01*
X133065717Y-105244727D01*
X133065721Y-105244724D01*
X133094049Y-105217748D01*
X133853500Y-105217748D01*
X133854707Y-105223816D01*
X133860624Y-105253561D01*
X133865133Y-105276231D01*
X133909448Y-105342552D01*
X133975769Y-105386867D01*
X133987938Y-105389288D01*
X133987939Y-105389288D01*
X134028184Y-105397293D01*
X134034252Y-105398500D01*
X135173748Y-105398500D01*
X135179816Y-105397293D01*
X135220061Y-105389288D01*
X135220062Y-105389288D01*
X135232231Y-105386867D01*
X135298552Y-105342552D01*
X135342867Y-105276231D01*
X135347377Y-105253561D01*
X135353293Y-105223816D01*
X135354500Y-105217748D01*
X135354500Y-104078252D01*
X135350000Y-104055631D01*
X135345288Y-104031939D01*
X135345288Y-104031938D01*
X135342867Y-104019769D01*
X135298552Y-103953448D01*
X135232231Y-103909133D01*
X135220062Y-103906712D01*
X135220061Y-103906712D01*
X135179816Y-103898707D01*
X135173748Y-103897500D01*
X134034252Y-103897500D01*
X134028184Y-103898707D01*
X133987939Y-103906712D01*
X133987938Y-103906712D01*
X133975769Y-103909133D01*
X133909448Y-103953448D01*
X133865133Y-104019769D01*
X133862712Y-104031938D01*
X133862712Y-104031939D01*
X133858000Y-104055631D01*
X133853500Y-104078252D01*
X133853500Y-105217748D01*
X133094049Y-105217748D01*
X133177454Y-105138322D01*
X133177455Y-105138320D01*
X133182554Y-105133465D01*
X133198934Y-105108812D01*
X133247826Y-105035223D01*
X133275731Y-104993223D01*
X133335521Y-104835823D01*
X133358955Y-104669088D01*
X133359249Y-104648000D01*
X133344446Y-104516026D01*
X133341266Y-104487672D01*
X133341265Y-104487669D01*
X133340481Y-104480676D01*
X133285108Y-104321668D01*
X133195884Y-104178879D01*
X133187723Y-104170661D01*
X133082205Y-104064403D01*
X133082201Y-104064400D01*
X133077242Y-104059406D01*
X132935079Y-103969187D01*
X132776462Y-103912706D01*
X132769474Y-103911873D01*
X132769471Y-103911872D01*
X132659068Y-103898707D01*
X132609273Y-103892769D01*
X132602270Y-103893505D01*
X132602269Y-103893505D01*
X132564261Y-103897500D01*
X132441821Y-103910369D01*
X132435155Y-103912638D01*
X132435152Y-103912639D01*
X132289098Y-103962360D01*
X132289095Y-103962361D01*
X132282431Y-103964630D01*
X132276436Y-103968318D01*
X132276432Y-103968320D01*
X132145021Y-104049165D01*
X132145019Y-104049167D01*
X132139022Y-104052856D01*
X132018724Y-104170661D01*
X131927515Y-104312190D01*
X131869927Y-104470409D01*
X131848825Y-104637455D01*
X122146500Y-104637455D01*
X122146500Y-104120252D01*
X122142000Y-104097631D01*
X122137288Y-104073939D01*
X122137288Y-104073938D01*
X122134867Y-104061769D01*
X122090552Y-103995448D01*
X122024231Y-103951133D01*
X122012062Y-103948712D01*
X122012061Y-103948712D01*
X121971816Y-103940707D01*
X121965748Y-103939500D01*
X120826252Y-103939500D01*
X120820184Y-103940707D01*
X120779939Y-103948712D01*
X120779938Y-103948712D01*
X120767769Y-103951133D01*
X120701448Y-103995448D01*
X120657133Y-104061769D01*
X120654712Y-104073938D01*
X120654712Y-104073939D01*
X120650000Y-104097631D01*
X120645500Y-104120252D01*
X120645500Y-105259748D01*
X119886049Y-105259748D01*
X119969454Y-105180322D01*
X119969455Y-105180320D01*
X119974554Y-105175465D01*
X119990934Y-105150812D01*
X120063836Y-105041085D01*
X120067731Y-105035223D01*
X120127521Y-104877823D01*
X120150955Y-104711088D01*
X120151249Y-104690000D01*
X120132481Y-104522676D01*
X120077108Y-104363668D01*
X119987884Y-104220879D01*
X119979723Y-104212661D01*
X119874205Y-104106403D01*
X119874201Y-104106400D01*
X119869242Y-104101406D01*
X119727079Y-104011187D01*
X119568462Y-103954706D01*
X119561474Y-103953873D01*
X119561471Y-103953872D01*
X119451068Y-103940707D01*
X119401273Y-103934769D01*
X119394270Y-103935505D01*
X119394269Y-103935505D01*
X119356261Y-103939500D01*
X119233821Y-103952369D01*
X119227155Y-103954638D01*
X119227152Y-103954639D01*
X119081098Y-104004360D01*
X119081095Y-104004361D01*
X119074431Y-104006630D01*
X119068436Y-104010318D01*
X119068432Y-104010320D01*
X118937021Y-104091165D01*
X118937019Y-104091167D01*
X118931022Y-104094856D01*
X118810724Y-104212661D01*
X118719515Y-104354190D01*
X118661927Y-104512409D01*
X118640825Y-104679455D01*
X115571000Y-104679455D01*
X115571000Y-100838000D01*
X123854318Y-100838000D01*
X123874956Y-100994762D01*
X123935464Y-101140841D01*
X124031718Y-101266282D01*
X124157159Y-101362536D01*
X124303238Y-101423044D01*
X124460000Y-101443682D01*
X124468188Y-101442604D01*
X124608574Y-101424122D01*
X124616762Y-101423044D01*
X124762841Y-101362536D01*
X124888282Y-101266282D01*
X124929323Y-101212796D01*
X124986661Y-101170929D01*
X125029286Y-101163500D01*
X127446714Y-101163500D01*
X127514835Y-101183502D01*
X127546677Y-101212796D01*
X127587718Y-101266282D01*
X127713159Y-101362536D01*
X127859238Y-101423044D01*
X128016000Y-101443682D01*
X128024188Y-101442604D01*
X128164574Y-101424122D01*
X128172762Y-101423044D01*
X128318841Y-101362536D01*
X128444282Y-101266282D01*
X128485323Y-101212796D01*
X128542661Y-101170929D01*
X128585286Y-101163500D01*
X129774290Y-101163500D01*
X129785272Y-101163980D01*
X129811820Y-101166303D01*
X129811822Y-101166303D01*
X129822807Y-101167264D01*
X129859215Y-101157508D01*
X129869942Y-101155130D01*
X129873301Y-101154538D01*
X129907045Y-101148588D01*
X129916590Y-101143077D01*
X129919866Y-101141885D01*
X129923034Y-101140408D01*
X129933684Y-101137554D01*
X129964544Y-101115945D01*
X129973815Y-101110039D01*
X129996906Y-101096707D01*
X130006455Y-101091194D01*
X130030685Y-101062317D01*
X130038111Y-101054215D01*
X131026215Y-100066111D01*
X131034319Y-100058684D01*
X131054749Y-100041541D01*
X131063194Y-100034455D01*
X131078366Y-100008176D01*
X131082039Y-100001815D01*
X131087945Y-99992544D01*
X131103230Y-99970715D01*
X131109554Y-99961684D01*
X131112408Y-99951034D01*
X131113885Y-99947866D01*
X131115077Y-99944590D01*
X131120588Y-99935045D01*
X131127130Y-99897942D01*
X131129509Y-99887210D01*
X131132140Y-99877392D01*
X131139264Y-99850807D01*
X131135980Y-99813272D01*
X131135500Y-99802290D01*
X131135500Y-99045507D01*
X133582103Y-99045507D01*
X133599055Y-99247379D01*
X133600754Y-99253304D01*
X133648389Y-99419426D01*
X133654894Y-99442113D01*
X133657713Y-99447598D01*
X133744676Y-99616810D01*
X133744679Y-99616815D01*
X133747494Y-99622292D01*
X133873327Y-99781054D01*
X133878021Y-99785049D01*
X134010670Y-99897942D01*
X134027600Y-99912351D01*
X134032978Y-99915357D01*
X134032980Y-99915358D01*
X134115871Y-99961684D01*
X134204439Y-100011183D01*
X134397105Y-100073784D01*
X134598262Y-100097770D01*
X134604397Y-100097298D01*
X134604399Y-100097298D01*
X134794105Y-100082701D01*
X134794110Y-100082700D01*
X134800246Y-100082228D01*
X134806176Y-100080572D01*
X134806178Y-100080572D01*
X134897806Y-100054989D01*
X134995366Y-100027750D01*
X135000866Y-100024972D01*
X135170686Y-99939190D01*
X135170688Y-99939189D01*
X135176187Y-99936411D01*
X135335824Y-99811689D01*
X135362268Y-99781054D01*
X135404272Y-99732391D01*
X135468195Y-99658336D01*
X135568258Y-99482192D01*
X135571740Y-99471727D01*
X135630256Y-99295819D01*
X135632203Y-99289967D01*
X135657593Y-99088983D01*
X135657998Y-99060000D01*
X135638229Y-98858385D01*
X135636448Y-98852486D01*
X135636447Y-98852481D01*
X135581458Y-98670349D01*
X135579677Y-98664450D01*
X135484571Y-98485581D01*
X135480681Y-98480811D01*
X135480678Y-98480807D01*
X135360428Y-98333366D01*
X135360425Y-98333363D01*
X135356533Y-98328591D01*
X135320863Y-98299082D01*
X135205191Y-98203390D01*
X135205188Y-98203388D01*
X135200441Y-98199461D01*
X135022240Y-98103108D01*
X134925479Y-98073155D01*
X134834605Y-98045025D01*
X134834602Y-98045024D01*
X134828718Y-98043203D01*
X134822593Y-98042559D01*
X134822592Y-98042559D01*
X134633375Y-98022671D01*
X134633374Y-98022671D01*
X134627247Y-98022027D01*
X134543846Y-98029617D01*
X134431638Y-98039829D01*
X134431635Y-98039830D01*
X134425499Y-98040388D01*
X134419593Y-98042126D01*
X134419589Y-98042127D01*
X134274417Y-98084853D01*
X134231159Y-98097585D01*
X134051630Y-98191440D01*
X133893751Y-98318379D01*
X133763534Y-98473565D01*
X133665939Y-98651089D01*
X133604685Y-98844188D01*
X133603999Y-98850305D01*
X133603998Y-98850309D01*
X133589240Y-98981878D01*
X133582103Y-99045507D01*
X131135500Y-99045507D01*
X131135500Y-96505507D01*
X133582103Y-96505507D01*
X133582619Y-96511650D01*
X133597867Y-96693228D01*
X133599055Y-96707379D01*
X133600754Y-96713304D01*
X133649243Y-96882405D01*
X133654894Y-96902113D01*
X133657713Y-96907598D01*
X133744676Y-97076810D01*
X133744679Y-97076815D01*
X133747494Y-97082292D01*
X133873327Y-97241054D01*
X134027600Y-97372351D01*
X134204439Y-97471183D01*
X134397105Y-97533784D01*
X134598262Y-97557770D01*
X134604397Y-97557298D01*
X134604399Y-97557298D01*
X134794105Y-97542701D01*
X134794110Y-97542700D01*
X134800246Y-97542228D01*
X134806176Y-97540572D01*
X134806178Y-97540572D01*
X134897806Y-97514989D01*
X134995366Y-97487750D01*
X135024394Y-97473087D01*
X135170686Y-97399190D01*
X135170688Y-97399189D01*
X135176187Y-97396411D01*
X135335824Y-97271689D01*
X135362268Y-97241054D01*
X135421935Y-97171929D01*
X135468195Y-97118336D01*
X135547258Y-96979159D01*
X135565215Y-96947549D01*
X135565216Y-96947548D01*
X135568258Y-96942192D01*
X135571740Y-96931727D01*
X135630256Y-96755819D01*
X135632203Y-96749967D01*
X135657593Y-96548983D01*
X135657998Y-96520000D01*
X135638229Y-96318385D01*
X135636448Y-96312486D01*
X135636447Y-96312481D01*
X135581458Y-96130349D01*
X135579677Y-96124450D01*
X135484571Y-95945581D01*
X135480681Y-95940811D01*
X135480678Y-95940807D01*
X135360428Y-95793366D01*
X135360425Y-95793363D01*
X135356533Y-95788591D01*
X135339518Y-95774515D01*
X135205191Y-95663390D01*
X135205188Y-95663388D01*
X135200441Y-95659461D01*
X135022240Y-95563108D01*
X134925479Y-95533156D01*
X134834605Y-95505025D01*
X134834602Y-95505024D01*
X134828718Y-95503203D01*
X134822593Y-95502559D01*
X134822592Y-95502559D01*
X134633375Y-95482671D01*
X134633374Y-95482671D01*
X134627247Y-95482027D01*
X134543846Y-95489617D01*
X134431638Y-95499829D01*
X134431635Y-95499830D01*
X134425499Y-95500388D01*
X134419593Y-95502126D01*
X134419589Y-95502127D01*
X134274417Y-95544853D01*
X134231159Y-95557585D01*
X134051630Y-95651440D01*
X133893751Y-95778379D01*
X133763534Y-95933565D01*
X133665939Y-96111089D01*
X133604685Y-96304188D01*
X133603999Y-96310305D01*
X133603998Y-96310309D01*
X133602404Y-96324519D01*
X133582103Y-96505507D01*
X131135500Y-96505507D01*
X131135500Y-93965507D01*
X133582103Y-93965507D01*
X133599055Y-94167379D01*
X133654894Y-94362113D01*
X133657713Y-94367598D01*
X133744676Y-94536810D01*
X133744679Y-94536815D01*
X133747494Y-94542292D01*
X133873327Y-94701054D01*
X134027600Y-94832351D01*
X134204439Y-94931183D01*
X134397105Y-94993784D01*
X134598262Y-95017770D01*
X134604397Y-95017298D01*
X134604399Y-95017298D01*
X134794105Y-95002701D01*
X134794110Y-95002700D01*
X134800246Y-95002228D01*
X134806176Y-95000572D01*
X134806178Y-95000572D01*
X134897806Y-94974989D01*
X134995366Y-94947750D01*
X135024394Y-94933087D01*
X135170686Y-94859190D01*
X135170688Y-94859189D01*
X135176187Y-94856411D01*
X135335824Y-94731689D01*
X135362268Y-94701054D01*
X135464168Y-94583001D01*
X135468195Y-94578336D01*
X135568258Y-94402192D01*
X135632203Y-94209967D01*
X135657593Y-94008983D01*
X135657998Y-93980000D01*
X135638229Y-93778385D01*
X135636448Y-93772486D01*
X135636447Y-93772481D01*
X135581458Y-93590349D01*
X135579677Y-93584450D01*
X135484571Y-93405581D01*
X135480681Y-93400811D01*
X135480678Y-93400807D01*
X135360428Y-93253366D01*
X135360425Y-93253363D01*
X135356533Y-93248591D01*
X135339518Y-93234515D01*
X135205191Y-93123390D01*
X135205188Y-93123388D01*
X135200441Y-93119461D01*
X135022240Y-93023108D01*
X134925479Y-92993156D01*
X134834605Y-92965025D01*
X134834602Y-92965024D01*
X134828718Y-92963203D01*
X134822593Y-92962559D01*
X134822592Y-92962559D01*
X134633375Y-92942671D01*
X134633374Y-92942671D01*
X134627247Y-92942027D01*
X134543846Y-92949617D01*
X134431638Y-92959829D01*
X134431635Y-92959830D01*
X134425499Y-92960388D01*
X134419593Y-92962126D01*
X134419589Y-92962127D01*
X134274417Y-93004853D01*
X134231159Y-93017585D01*
X134051630Y-93111440D01*
X133893751Y-93238379D01*
X133763534Y-93393565D01*
X133665939Y-93571089D01*
X133604685Y-93764188D01*
X133603999Y-93770305D01*
X133603998Y-93770309D01*
X133602404Y-93784519D01*
X133582103Y-93965507D01*
X131135500Y-93965507D01*
X131135500Y-91425507D01*
X133582103Y-91425507D01*
X133599055Y-91627379D01*
X133654894Y-91822113D01*
X133657713Y-91827598D01*
X133744676Y-91996810D01*
X133744679Y-91996815D01*
X133747494Y-92002292D01*
X133873327Y-92161054D01*
X134027600Y-92292351D01*
X134204439Y-92391183D01*
X134397105Y-92453784D01*
X134598262Y-92477770D01*
X134604397Y-92477298D01*
X134604399Y-92477298D01*
X134794105Y-92462701D01*
X134794110Y-92462700D01*
X134800246Y-92462228D01*
X134806176Y-92460572D01*
X134806178Y-92460572D01*
X134897806Y-92434989D01*
X134995366Y-92407750D01*
X135024394Y-92393087D01*
X135170686Y-92319190D01*
X135170688Y-92319189D01*
X135176187Y-92316411D01*
X135335824Y-92191689D01*
X135362268Y-92161054D01*
X135464168Y-92043001D01*
X135468195Y-92038336D01*
X135568258Y-91862192D01*
X135632203Y-91669967D01*
X135657593Y-91468983D01*
X135657998Y-91440000D01*
X135638229Y-91238385D01*
X135636448Y-91232486D01*
X135636447Y-91232481D01*
X135581458Y-91050349D01*
X135579677Y-91044450D01*
X135484571Y-90865581D01*
X135480681Y-90860811D01*
X135480678Y-90860807D01*
X135360428Y-90713366D01*
X135360425Y-90713363D01*
X135356533Y-90708591D01*
X135339518Y-90694515D01*
X135205191Y-90583390D01*
X135205188Y-90583388D01*
X135200441Y-90579461D01*
X135022240Y-90483108D01*
X134925479Y-90453155D01*
X134834605Y-90425025D01*
X134834602Y-90425024D01*
X134828718Y-90423203D01*
X134822593Y-90422559D01*
X134822592Y-90422559D01*
X134633375Y-90402671D01*
X134633374Y-90402671D01*
X134627247Y-90402027D01*
X134543846Y-90409617D01*
X134431638Y-90419829D01*
X134431635Y-90419830D01*
X134425499Y-90420388D01*
X134419593Y-90422126D01*
X134419589Y-90422127D01*
X134274417Y-90464853D01*
X134231159Y-90477585D01*
X134051630Y-90571440D01*
X133893751Y-90698379D01*
X133763534Y-90853565D01*
X133665939Y-91031089D01*
X133604685Y-91224188D01*
X133603999Y-91230305D01*
X133603998Y-91230309D01*
X133602404Y-91244519D01*
X133582103Y-91425507D01*
X131135500Y-91425507D01*
X131135500Y-88885507D01*
X133582103Y-88885507D01*
X133599055Y-89087379D01*
X133654894Y-89282113D01*
X133657713Y-89287598D01*
X133744676Y-89456810D01*
X133744679Y-89456815D01*
X133747494Y-89462292D01*
X133873327Y-89621054D01*
X134027600Y-89752351D01*
X134204439Y-89851183D01*
X134397105Y-89913784D01*
X134598262Y-89937770D01*
X134604397Y-89937298D01*
X134604399Y-89937298D01*
X134794105Y-89922701D01*
X134794110Y-89922700D01*
X134800246Y-89922228D01*
X134806176Y-89920572D01*
X134806178Y-89920572D01*
X134897806Y-89894989D01*
X134995366Y-89867750D01*
X135024394Y-89853087D01*
X135170686Y-89779190D01*
X135170688Y-89779189D01*
X135176187Y-89776411D01*
X135335824Y-89651689D01*
X135362268Y-89621054D01*
X135464168Y-89503001D01*
X135468195Y-89498336D01*
X135568258Y-89322192D01*
X135632203Y-89129967D01*
X135657593Y-88928983D01*
X135657998Y-88900000D01*
X135638229Y-88698385D01*
X135636448Y-88692486D01*
X135636447Y-88692481D01*
X135581458Y-88510349D01*
X135579677Y-88504450D01*
X135484571Y-88325581D01*
X135480681Y-88320811D01*
X135480678Y-88320807D01*
X135360428Y-88173366D01*
X135360425Y-88173363D01*
X135356533Y-88168591D01*
X135339518Y-88154515D01*
X135205191Y-88043390D01*
X135205188Y-88043388D01*
X135200441Y-88039461D01*
X135022240Y-87943108D01*
X134925479Y-87913155D01*
X134834605Y-87885025D01*
X134834602Y-87885024D01*
X134828718Y-87883203D01*
X134822593Y-87882559D01*
X134822592Y-87882559D01*
X134633375Y-87862671D01*
X134633374Y-87862671D01*
X134627247Y-87862027D01*
X134543846Y-87869617D01*
X134431638Y-87879829D01*
X134431635Y-87879830D01*
X134425499Y-87880388D01*
X134419593Y-87882126D01*
X134419589Y-87882127D01*
X134274417Y-87924853D01*
X134231159Y-87937585D01*
X134051630Y-88031440D01*
X133893751Y-88158379D01*
X133763534Y-88313565D01*
X133665939Y-88491089D01*
X133604685Y-88684188D01*
X133603999Y-88690305D01*
X133603998Y-88690309D01*
X133602404Y-88704519D01*
X133582103Y-88885507D01*
X131135500Y-88885507D01*
X131135500Y-86345507D01*
X133582103Y-86345507D01*
X133599055Y-86547379D01*
X133654894Y-86742113D01*
X133657713Y-86747598D01*
X133744676Y-86916810D01*
X133744679Y-86916815D01*
X133747494Y-86922292D01*
X133873327Y-87081054D01*
X134027600Y-87212351D01*
X134204439Y-87311183D01*
X134397105Y-87373784D01*
X134598262Y-87397770D01*
X134604397Y-87397298D01*
X134604399Y-87397298D01*
X134794105Y-87382701D01*
X134794110Y-87382700D01*
X134800246Y-87382228D01*
X134806176Y-87380572D01*
X134806178Y-87380572D01*
X134897806Y-87354989D01*
X134995366Y-87327750D01*
X135024394Y-87313087D01*
X135170686Y-87239190D01*
X135170688Y-87239189D01*
X135176187Y-87236411D01*
X135335824Y-87111689D01*
X135362268Y-87081054D01*
X135464168Y-86963001D01*
X135468195Y-86958336D01*
X135568258Y-86782192D01*
X135632203Y-86589967D01*
X135657593Y-86388983D01*
X135657998Y-86360000D01*
X135638229Y-86158385D01*
X135636448Y-86152486D01*
X135636447Y-86152481D01*
X135581458Y-85970349D01*
X135579677Y-85964450D01*
X135484571Y-85785581D01*
X135480681Y-85780811D01*
X135480678Y-85780807D01*
X135360428Y-85633366D01*
X135360425Y-85633363D01*
X135356533Y-85628591D01*
X135339518Y-85614515D01*
X135205191Y-85503390D01*
X135205188Y-85503388D01*
X135200441Y-85499461D01*
X135022240Y-85403108D01*
X134925479Y-85373155D01*
X134834605Y-85345025D01*
X134834602Y-85345024D01*
X134828718Y-85343203D01*
X134822593Y-85342559D01*
X134822592Y-85342559D01*
X134633375Y-85322671D01*
X134633374Y-85322671D01*
X134627247Y-85322027D01*
X134543846Y-85329617D01*
X134431638Y-85339829D01*
X134431635Y-85339830D01*
X134425499Y-85340388D01*
X134419593Y-85342126D01*
X134419589Y-85342127D01*
X134274417Y-85384853D01*
X134231159Y-85397585D01*
X134051630Y-85491440D01*
X133893751Y-85618379D01*
X133763534Y-85773565D01*
X133665939Y-85951089D01*
X133604685Y-86144188D01*
X133603999Y-86150305D01*
X133603998Y-86150309D01*
X133602404Y-86164519D01*
X133582103Y-86345507D01*
X131135500Y-86345507D01*
X131135500Y-83805507D01*
X133582103Y-83805507D01*
X133599055Y-84007379D01*
X133654894Y-84202113D01*
X133657713Y-84207598D01*
X133744676Y-84376810D01*
X133744679Y-84376815D01*
X133747494Y-84382292D01*
X133873327Y-84541054D01*
X134027600Y-84672351D01*
X134204439Y-84771183D01*
X134397105Y-84833784D01*
X134598262Y-84857770D01*
X134604397Y-84857298D01*
X134604399Y-84857298D01*
X134794105Y-84842701D01*
X134794110Y-84842700D01*
X134800246Y-84842228D01*
X134806176Y-84840572D01*
X134806178Y-84840572D01*
X134897806Y-84814989D01*
X134995366Y-84787750D01*
X135024394Y-84773087D01*
X135170686Y-84699190D01*
X135170688Y-84699189D01*
X135176187Y-84696411D01*
X135335824Y-84571689D01*
X135362268Y-84541054D01*
X135464168Y-84423001D01*
X135468195Y-84418336D01*
X135568258Y-84242192D01*
X135632203Y-84049967D01*
X135657593Y-83848983D01*
X135657998Y-83820000D01*
X135638229Y-83618385D01*
X135636448Y-83612486D01*
X135636447Y-83612481D01*
X135581458Y-83430349D01*
X135579677Y-83424450D01*
X135484571Y-83245581D01*
X135480681Y-83240811D01*
X135480678Y-83240807D01*
X135360428Y-83093366D01*
X135360425Y-83093363D01*
X135356533Y-83088591D01*
X135339518Y-83074515D01*
X135205191Y-82963390D01*
X135205188Y-82963388D01*
X135200441Y-82959461D01*
X135022240Y-82863108D01*
X134914407Y-82829728D01*
X134834605Y-82805025D01*
X134834602Y-82805024D01*
X134828718Y-82803203D01*
X134822593Y-82802559D01*
X134822592Y-82802559D01*
X134633375Y-82782671D01*
X134633374Y-82782671D01*
X134627247Y-82782027D01*
X134543846Y-82789617D01*
X134431638Y-82799829D01*
X134431635Y-82799830D01*
X134425499Y-82800388D01*
X134419593Y-82802126D01*
X134419589Y-82802127D01*
X134274417Y-82844853D01*
X134231159Y-82857585D01*
X134051630Y-82951440D01*
X133893751Y-83078379D01*
X133763534Y-83233565D01*
X133665939Y-83411089D01*
X133604685Y-83604188D01*
X133603999Y-83610305D01*
X133603998Y-83610309D01*
X133602404Y-83624519D01*
X133582103Y-83805507D01*
X131135500Y-83805507D01*
X131135500Y-81265507D01*
X133582103Y-81265507D01*
X133599055Y-81467379D01*
X133600754Y-81473304D01*
X133651074Y-81648790D01*
X133654894Y-81662113D01*
X133657713Y-81667598D01*
X133744676Y-81836810D01*
X133744679Y-81836815D01*
X133747494Y-81842292D01*
X133873327Y-82001054D01*
X134027600Y-82132351D01*
X134204439Y-82231183D01*
X134397105Y-82293784D01*
X134598262Y-82317770D01*
X134604397Y-82317298D01*
X134604399Y-82317298D01*
X134794105Y-82302701D01*
X134794110Y-82302700D01*
X134800246Y-82302228D01*
X134806176Y-82300572D01*
X134806178Y-82300572D01*
X134897806Y-82274989D01*
X134995366Y-82247750D01*
X135024394Y-82233087D01*
X135170686Y-82159190D01*
X135170688Y-82159189D01*
X135176187Y-82156411D01*
X135335824Y-82031689D01*
X135349758Y-82015547D01*
X135464168Y-81883001D01*
X135468195Y-81878336D01*
X135568258Y-81702192D01*
X135584948Y-81652022D01*
X135630256Y-81515819D01*
X135632203Y-81509967D01*
X135657593Y-81308983D01*
X135657864Y-81289580D01*
X135657949Y-81283522D01*
X135657949Y-81283518D01*
X135657998Y-81280000D01*
X135638229Y-81078385D01*
X135636448Y-81072486D01*
X135636447Y-81072481D01*
X135581458Y-80890349D01*
X135579677Y-80884450D01*
X135484571Y-80705581D01*
X135480681Y-80700811D01*
X135480678Y-80700807D01*
X135360428Y-80553366D01*
X135360425Y-80553363D01*
X135356533Y-80548591D01*
X135349899Y-80543103D01*
X135205191Y-80423390D01*
X135205188Y-80423388D01*
X135200441Y-80419461D01*
X135022240Y-80323108D01*
X134925479Y-80293155D01*
X134834605Y-80265025D01*
X134834602Y-80265024D01*
X134828718Y-80263203D01*
X134822593Y-80262559D01*
X134822592Y-80262559D01*
X134633375Y-80242671D01*
X134633374Y-80242671D01*
X134627247Y-80242027D01*
X134543846Y-80249617D01*
X134431638Y-80259829D01*
X134431635Y-80259830D01*
X134425499Y-80260388D01*
X134419593Y-80262126D01*
X134419589Y-80262127D01*
X134274417Y-80304853D01*
X134231159Y-80317585D01*
X134051630Y-80411440D01*
X133893751Y-80538379D01*
X133763534Y-80693565D01*
X133665939Y-80871089D01*
X133604685Y-81064188D01*
X133603999Y-81070305D01*
X133603998Y-81070309D01*
X133602404Y-81084519D01*
X133582103Y-81265507D01*
X131135500Y-81265507D01*
X131135500Y-78725507D01*
X133582103Y-78725507D01*
X133599055Y-78927379D01*
X133654894Y-79122113D01*
X133657713Y-79127598D01*
X133744676Y-79296810D01*
X133744679Y-79296815D01*
X133747494Y-79302292D01*
X133873327Y-79461054D01*
X134027600Y-79592351D01*
X134204439Y-79691183D01*
X134397105Y-79753784D01*
X134598262Y-79777770D01*
X134604397Y-79777298D01*
X134604399Y-79777298D01*
X134794105Y-79762701D01*
X134794110Y-79762700D01*
X134800246Y-79762228D01*
X134806176Y-79760572D01*
X134806178Y-79760572D01*
X134989420Y-79709410D01*
X134995366Y-79707750D01*
X135024394Y-79693087D01*
X135170686Y-79619190D01*
X135170688Y-79619189D01*
X135176187Y-79616411D01*
X135335824Y-79491689D01*
X135362268Y-79461054D01*
X135464168Y-79343001D01*
X135468195Y-79338336D01*
X135568258Y-79162192D01*
X135632203Y-78969967D01*
X135657593Y-78768983D01*
X135657998Y-78740000D01*
X135638229Y-78538385D01*
X135636448Y-78532486D01*
X135636447Y-78532481D01*
X135581458Y-78350349D01*
X135579677Y-78344450D01*
X135484571Y-78165581D01*
X135480681Y-78160811D01*
X135480678Y-78160807D01*
X135360428Y-78013366D01*
X135360425Y-78013363D01*
X135356533Y-78008591D01*
X135311293Y-77971165D01*
X135205191Y-77883390D01*
X135205188Y-77883388D01*
X135200441Y-77879461D01*
X135022240Y-77783108D01*
X134925479Y-77753155D01*
X134834605Y-77725025D01*
X134834602Y-77725024D01*
X134828718Y-77723203D01*
X134822593Y-77722559D01*
X134822592Y-77722559D01*
X134633375Y-77702671D01*
X134633374Y-77702671D01*
X134627247Y-77702027D01*
X134543846Y-77709617D01*
X134431638Y-77719829D01*
X134431635Y-77719830D01*
X134425499Y-77720388D01*
X134419593Y-77722126D01*
X134419589Y-77722127D01*
X134274417Y-77764853D01*
X134231159Y-77777585D01*
X134051630Y-77871440D01*
X133893751Y-77998379D01*
X133763534Y-78153565D01*
X133665939Y-78331089D01*
X133604685Y-78524188D01*
X133603999Y-78530305D01*
X133603998Y-78530309D01*
X133602404Y-78544519D01*
X133582103Y-78725507D01*
X131135500Y-78725507D01*
X131135500Y-78039286D01*
X131155502Y-77971165D01*
X131184796Y-77939323D01*
X131231736Y-77903305D01*
X131238282Y-77898282D01*
X131334536Y-77772841D01*
X131395044Y-77626762D01*
X131415682Y-77470000D01*
X131395044Y-77313238D01*
X131334536Y-77167159D01*
X131238282Y-77041718D01*
X131112841Y-76945464D01*
X130966762Y-76884956D01*
X130810000Y-76864318D01*
X130653238Y-76884956D01*
X130507159Y-76945464D01*
X130381718Y-77041718D01*
X130285464Y-77167159D01*
X130224956Y-77313238D01*
X130204318Y-77470000D01*
X130224956Y-77626762D01*
X130285464Y-77772841D01*
X130381718Y-77898282D01*
X130388264Y-77903305D01*
X130435204Y-77939323D01*
X130477071Y-77996661D01*
X130484500Y-78039286D01*
X130484500Y-99634984D01*
X130464498Y-99703105D01*
X130447595Y-99724079D01*
X129696079Y-100475595D01*
X129633767Y-100509621D01*
X129606984Y-100512500D01*
X128585286Y-100512500D01*
X128517165Y-100492498D01*
X128485323Y-100463204D01*
X128449305Y-100416264D01*
X128444282Y-100409718D01*
X128318841Y-100313464D01*
X128172762Y-100252956D01*
X128016000Y-100232318D01*
X127859238Y-100252956D01*
X127713159Y-100313464D01*
X127587718Y-100409718D01*
X127582695Y-100416264D01*
X127546677Y-100463204D01*
X127489339Y-100505071D01*
X127446714Y-100512500D01*
X125029286Y-100512500D01*
X124961165Y-100492498D01*
X124929323Y-100463204D01*
X124893305Y-100416264D01*
X124888282Y-100409718D01*
X124762841Y-100313464D01*
X124616762Y-100252956D01*
X124460000Y-100232318D01*
X124303238Y-100252956D01*
X124157159Y-100313464D01*
X124031718Y-100409718D01*
X123935464Y-100535159D01*
X123874956Y-100681238D01*
X123854318Y-100838000D01*
X115571000Y-100838000D01*
X115571000Y-99045507D01*
X118342103Y-99045507D01*
X118359055Y-99247379D01*
X118360754Y-99253304D01*
X118408389Y-99419426D01*
X118414894Y-99442113D01*
X118417713Y-99447598D01*
X118504676Y-99616810D01*
X118504679Y-99616815D01*
X118507494Y-99622292D01*
X118633327Y-99781054D01*
X118638021Y-99785049D01*
X118770670Y-99897942D01*
X118787600Y-99912351D01*
X118792978Y-99915357D01*
X118792980Y-99915358D01*
X118875871Y-99961684D01*
X118964439Y-100011183D01*
X119157105Y-100073784D01*
X119358262Y-100097770D01*
X119364397Y-100097298D01*
X119364399Y-100097298D01*
X119554105Y-100082701D01*
X119554110Y-100082700D01*
X119560246Y-100082228D01*
X119566176Y-100080572D01*
X119566178Y-100080572D01*
X119657806Y-100054989D01*
X119755366Y-100027750D01*
X119760866Y-100024972D01*
X119930686Y-99939190D01*
X119930688Y-99939189D01*
X119936187Y-99936411D01*
X120095824Y-99811689D01*
X120122268Y-99781054D01*
X120164272Y-99732391D01*
X120228195Y-99658336D01*
X120328258Y-99482192D01*
X120331739Y-99471726D01*
X120372221Y-99413403D01*
X120437809Y-99386224D01*
X120451297Y-99385500D01*
X128306669Y-99385500D01*
X128374790Y-99405502D01*
X128421283Y-99459158D01*
X128431591Y-99527946D01*
X128426318Y-99568000D01*
X128446956Y-99724762D01*
X128507464Y-99870841D01*
X128603718Y-99996282D01*
X128729159Y-100092536D01*
X128875238Y-100153044D01*
X129032000Y-100173682D01*
X129040188Y-100172604D01*
X129180574Y-100154122D01*
X129188762Y-100153044D01*
X129334841Y-100092536D01*
X129460282Y-99996282D01*
X129556536Y-99870841D01*
X129617044Y-99724762D01*
X129637682Y-99568000D01*
X129617044Y-99411238D01*
X129556536Y-99265159D01*
X129460282Y-99139718D01*
X129334841Y-99043464D01*
X129188762Y-98982956D01*
X129032000Y-98962318D01*
X128965157Y-98971118D01*
X128895010Y-98960179D01*
X128859617Y-98935291D01*
X128768110Y-98843784D01*
X128760683Y-98835680D01*
X128743541Y-98815251D01*
X128736455Y-98806806D01*
X128726906Y-98801293D01*
X128703815Y-98787961D01*
X128694544Y-98782055D01*
X128672715Y-98766770D01*
X128663684Y-98760446D01*
X128653034Y-98757592D01*
X128649866Y-98756115D01*
X128646590Y-98754923D01*
X128637045Y-98749412D01*
X128603301Y-98743462D01*
X128599942Y-98742870D01*
X128589215Y-98740492D01*
X128552807Y-98730736D01*
X128541822Y-98731697D01*
X128541820Y-98731697D01*
X128515272Y-98734020D01*
X128504290Y-98734500D01*
X120452248Y-98734500D01*
X120384127Y-98714498D01*
X120341548Y-98663455D01*
X120339677Y-98664450D01*
X120247465Y-98491023D01*
X120247463Y-98491020D01*
X120244571Y-98485581D01*
X120240681Y-98480811D01*
X120240678Y-98480807D01*
X120120428Y-98333366D01*
X120120425Y-98333363D01*
X120116533Y-98328591D01*
X120080863Y-98299082D01*
X119965191Y-98203390D01*
X119965188Y-98203388D01*
X119960441Y-98199461D01*
X119782240Y-98103108D01*
X119685479Y-98073155D01*
X119594605Y-98045025D01*
X119594602Y-98045024D01*
X119588718Y-98043203D01*
X119582593Y-98042559D01*
X119582592Y-98042559D01*
X119393375Y-98022671D01*
X119393374Y-98022671D01*
X119387247Y-98022027D01*
X119303846Y-98029617D01*
X119191638Y-98039829D01*
X119191635Y-98039830D01*
X119185499Y-98040388D01*
X119179593Y-98042126D01*
X119179589Y-98042127D01*
X119034417Y-98084853D01*
X118991159Y-98097585D01*
X118811630Y-98191440D01*
X118653751Y-98318379D01*
X118523534Y-98473565D01*
X118425939Y-98651089D01*
X118364685Y-98844188D01*
X118363999Y-98850305D01*
X118363998Y-98850309D01*
X118349240Y-98981878D01*
X118342103Y-99045507D01*
X115571000Y-99045507D01*
X115571000Y-98298198D01*
X115571082Y-98298000D01*
X115570765Y-98297235D01*
X115570198Y-98297000D01*
X115570000Y-98296918D01*
X115569802Y-98297000D01*
X100711000Y-98297000D01*
X100642879Y-98276998D01*
X100596386Y-98223342D01*
X100585000Y-98171000D01*
X100585000Y-96505507D01*
X114024103Y-96505507D01*
X114024619Y-96511650D01*
X114039867Y-96693228D01*
X114041055Y-96707379D01*
X114042754Y-96713304D01*
X114091243Y-96882405D01*
X114096894Y-96902113D01*
X114099713Y-96907598D01*
X114186676Y-97076810D01*
X114186679Y-97076815D01*
X114189494Y-97082292D01*
X114315327Y-97241054D01*
X114469600Y-97372351D01*
X114646439Y-97471183D01*
X114839105Y-97533784D01*
X115040262Y-97557770D01*
X115046397Y-97557298D01*
X115046399Y-97557298D01*
X115236105Y-97542701D01*
X115236110Y-97542700D01*
X115242246Y-97542228D01*
X115248176Y-97540572D01*
X115248178Y-97540572D01*
X115339806Y-97514989D01*
X115437366Y-97487750D01*
X115466394Y-97473087D01*
X115612686Y-97399190D01*
X115612688Y-97399189D01*
X115618187Y-97396411D01*
X115777824Y-97271689D01*
X115804268Y-97241054D01*
X115863935Y-97171929D01*
X115910195Y-97118336D01*
X115989258Y-96979159D01*
X116007215Y-96947549D01*
X116007216Y-96947548D01*
X116010258Y-96942192D01*
X116013740Y-96931727D01*
X116072256Y-96755819D01*
X116074203Y-96749967D01*
X116099593Y-96548983D01*
X116099998Y-96520000D01*
X116098577Y-96505507D01*
X118342103Y-96505507D01*
X118342619Y-96511650D01*
X118357867Y-96693228D01*
X118359055Y-96707379D01*
X118360754Y-96713304D01*
X118409243Y-96882405D01*
X118414894Y-96902113D01*
X118417713Y-96907598D01*
X118504676Y-97076810D01*
X118504679Y-97076815D01*
X118507494Y-97082292D01*
X118633327Y-97241054D01*
X118787600Y-97372351D01*
X118964439Y-97471183D01*
X119157105Y-97533784D01*
X119358262Y-97557770D01*
X119364397Y-97557298D01*
X119364399Y-97557298D01*
X119554105Y-97542701D01*
X119554110Y-97542700D01*
X119560246Y-97542228D01*
X119566176Y-97540572D01*
X119566178Y-97540572D01*
X119657806Y-97514989D01*
X119755366Y-97487750D01*
X119784394Y-97473087D01*
X119930686Y-97399190D01*
X119930688Y-97399189D01*
X119936187Y-97396411D01*
X120095824Y-97271689D01*
X120122268Y-97241054D01*
X120181935Y-97171929D01*
X120228195Y-97118336D01*
X120307258Y-96979159D01*
X120325215Y-96947549D01*
X120325216Y-96947548D01*
X120328258Y-96942192D01*
X120331739Y-96931726D01*
X120372221Y-96873403D01*
X120437809Y-96846224D01*
X120451297Y-96845500D01*
X126050984Y-96845500D01*
X126119105Y-96865502D01*
X126140079Y-96882405D01*
X126367291Y-97109617D01*
X126401317Y-97171929D01*
X126403118Y-97215157D01*
X126394318Y-97282000D01*
X126414956Y-97438762D01*
X126475464Y-97584841D01*
X126571718Y-97710282D01*
X126697159Y-97806536D01*
X126843238Y-97867044D01*
X127000000Y-97887682D01*
X127008188Y-97886604D01*
X127148574Y-97868122D01*
X127156762Y-97867044D01*
X127302841Y-97806536D01*
X127428282Y-97710282D01*
X127524536Y-97584841D01*
X127585044Y-97438762D01*
X127605682Y-97282000D01*
X127585044Y-97125238D01*
X127524536Y-96979159D01*
X127428282Y-96853718D01*
X127302841Y-96757464D01*
X127156762Y-96696956D01*
X127000000Y-96676318D01*
X126933157Y-96685118D01*
X126863010Y-96674179D01*
X126827617Y-96649291D01*
X126482111Y-96303785D01*
X126474684Y-96295681D01*
X126457541Y-96275251D01*
X126457542Y-96275251D01*
X126450455Y-96266806D01*
X126440906Y-96261293D01*
X126417815Y-96247961D01*
X126408544Y-96242055D01*
X126386715Y-96226770D01*
X126377684Y-96220446D01*
X126367034Y-96217592D01*
X126363866Y-96216115D01*
X126360590Y-96214923D01*
X126351045Y-96209412D01*
X126317301Y-96203462D01*
X126313942Y-96202870D01*
X126303215Y-96200492D01*
X126266807Y-96190736D01*
X126255822Y-96191697D01*
X126255820Y-96191697D01*
X126229272Y-96194020D01*
X126218290Y-96194500D01*
X120452248Y-96194500D01*
X120384127Y-96174498D01*
X120341548Y-96123455D01*
X120339677Y-96124450D01*
X120247465Y-95951023D01*
X120247463Y-95951020D01*
X120244571Y-95945581D01*
X120240681Y-95940811D01*
X120240678Y-95940807D01*
X120120428Y-95793366D01*
X120120425Y-95793363D01*
X120116533Y-95788591D01*
X120099518Y-95774515D01*
X119965191Y-95663390D01*
X119965188Y-95663388D01*
X119960441Y-95659461D01*
X119782240Y-95563108D01*
X119685479Y-95533156D01*
X119594605Y-95505025D01*
X119594602Y-95505024D01*
X119588718Y-95503203D01*
X119582593Y-95502559D01*
X119582592Y-95502559D01*
X119393375Y-95482671D01*
X119393374Y-95482671D01*
X119387247Y-95482027D01*
X119303846Y-95489617D01*
X119191638Y-95499829D01*
X119191635Y-95499830D01*
X119185499Y-95500388D01*
X119179593Y-95502126D01*
X119179589Y-95502127D01*
X119034417Y-95544853D01*
X118991159Y-95557585D01*
X118811630Y-95651440D01*
X118653751Y-95778379D01*
X118523534Y-95933565D01*
X118425939Y-96111089D01*
X118364685Y-96304188D01*
X118363999Y-96310305D01*
X118363998Y-96310309D01*
X118362404Y-96324519D01*
X118342103Y-96505507D01*
X116098577Y-96505507D01*
X116080229Y-96318385D01*
X116078448Y-96312486D01*
X116078447Y-96312481D01*
X116023458Y-96130349D01*
X116021677Y-96124450D01*
X115926571Y-95945581D01*
X115922681Y-95940811D01*
X115922678Y-95940807D01*
X115802428Y-95793366D01*
X115802425Y-95793363D01*
X115798533Y-95788591D01*
X115781518Y-95774515D01*
X115647191Y-95663390D01*
X115647188Y-95663388D01*
X115642441Y-95659461D01*
X115464240Y-95563108D01*
X115367479Y-95533156D01*
X115276605Y-95505025D01*
X115276602Y-95505024D01*
X115270718Y-95503203D01*
X115264593Y-95502559D01*
X115264592Y-95502559D01*
X115075375Y-95482671D01*
X115075374Y-95482671D01*
X115069247Y-95482027D01*
X114985846Y-95489617D01*
X114873638Y-95499829D01*
X114873635Y-95499830D01*
X114867499Y-95500388D01*
X114861593Y-95502126D01*
X114861589Y-95502127D01*
X114716417Y-95544853D01*
X114673159Y-95557585D01*
X114493630Y-95651440D01*
X114335751Y-95778379D01*
X114205534Y-95933565D01*
X114107939Y-96111089D01*
X114046685Y-96304188D01*
X114045999Y-96310305D01*
X114045998Y-96310309D01*
X114044404Y-96324519D01*
X114024103Y-96505507D01*
X100585000Y-96505507D01*
X100585000Y-93965507D01*
X114024103Y-93965507D01*
X114041055Y-94167379D01*
X114096894Y-94362113D01*
X114099713Y-94367598D01*
X114186676Y-94536810D01*
X114186679Y-94536815D01*
X114189494Y-94542292D01*
X114315327Y-94701054D01*
X114469600Y-94832351D01*
X114646439Y-94931183D01*
X114839105Y-94993784D01*
X115040262Y-95017770D01*
X115046397Y-95017298D01*
X115046399Y-95017298D01*
X115236105Y-95002701D01*
X115236110Y-95002700D01*
X115242246Y-95002228D01*
X115248176Y-95000572D01*
X115248178Y-95000572D01*
X115339806Y-94974989D01*
X115437366Y-94947750D01*
X115466394Y-94933087D01*
X115612686Y-94859190D01*
X115612688Y-94859189D01*
X115618187Y-94856411D01*
X115777824Y-94731689D01*
X115804268Y-94701054D01*
X115906168Y-94583001D01*
X115910195Y-94578336D01*
X116010258Y-94402192D01*
X116074203Y-94209967D01*
X116099593Y-94008983D01*
X116099998Y-93980000D01*
X116098577Y-93965507D01*
X118342103Y-93965507D01*
X118359055Y-94167379D01*
X118414894Y-94362113D01*
X118417713Y-94367598D01*
X118504676Y-94536810D01*
X118504679Y-94536815D01*
X118507494Y-94542292D01*
X118633327Y-94701054D01*
X118787600Y-94832351D01*
X118964439Y-94931183D01*
X119157105Y-94993784D01*
X119358262Y-95017770D01*
X119364397Y-95017298D01*
X119364399Y-95017298D01*
X119554105Y-95002701D01*
X119554110Y-95002700D01*
X119560246Y-95002228D01*
X119566176Y-95000572D01*
X119566178Y-95000572D01*
X119657806Y-94974989D01*
X119755366Y-94947750D01*
X119784394Y-94933087D01*
X119930686Y-94859190D01*
X119930688Y-94859189D01*
X119936187Y-94856411D01*
X120095824Y-94731689D01*
X120122268Y-94701054D01*
X120224168Y-94583001D01*
X120228195Y-94578336D01*
X120328258Y-94402192D01*
X120392203Y-94209967D01*
X120417593Y-94008983D01*
X120417998Y-93980000D01*
X120398229Y-93778385D01*
X120396448Y-93772486D01*
X120396447Y-93772481D01*
X120341458Y-93590349D01*
X120339677Y-93584450D01*
X120244571Y-93405581D01*
X120240681Y-93400811D01*
X120240678Y-93400807D01*
X120120428Y-93253366D01*
X120120425Y-93253363D01*
X120116533Y-93248591D01*
X120099518Y-93234515D01*
X119965191Y-93123390D01*
X119965188Y-93123388D01*
X119960441Y-93119461D01*
X119782240Y-93023108D01*
X119685479Y-92993156D01*
X119594605Y-92965025D01*
X119594602Y-92965024D01*
X119588718Y-92963203D01*
X119582593Y-92962559D01*
X119582592Y-92962559D01*
X119393375Y-92942671D01*
X119393374Y-92942671D01*
X119387247Y-92942027D01*
X119303846Y-92949617D01*
X119191638Y-92959829D01*
X119191635Y-92959830D01*
X119185499Y-92960388D01*
X119179593Y-92962126D01*
X119179589Y-92962127D01*
X119034417Y-93004853D01*
X118991159Y-93017585D01*
X118811630Y-93111440D01*
X118653751Y-93238379D01*
X118523534Y-93393565D01*
X118425939Y-93571089D01*
X118364685Y-93764188D01*
X118363999Y-93770305D01*
X118363998Y-93770309D01*
X118362404Y-93784519D01*
X118342103Y-93965507D01*
X116098577Y-93965507D01*
X116080229Y-93778385D01*
X116078448Y-93772486D01*
X116078447Y-93772481D01*
X116023458Y-93590349D01*
X116021677Y-93584450D01*
X115926571Y-93405581D01*
X115922681Y-93400811D01*
X115922678Y-93400807D01*
X115802428Y-93253366D01*
X115802425Y-93253363D01*
X115798533Y-93248591D01*
X115781518Y-93234515D01*
X115647191Y-93123390D01*
X115647188Y-93123388D01*
X115642441Y-93119461D01*
X115464240Y-93023108D01*
X115367479Y-92993156D01*
X115276605Y-92965025D01*
X115276602Y-92965024D01*
X115270718Y-92963203D01*
X115264593Y-92962559D01*
X115264592Y-92962559D01*
X115075375Y-92942671D01*
X115075374Y-92942671D01*
X115069247Y-92942027D01*
X114985846Y-92949617D01*
X114873638Y-92959829D01*
X114873635Y-92959830D01*
X114867499Y-92960388D01*
X114861593Y-92962126D01*
X114861589Y-92962127D01*
X114716417Y-93004853D01*
X114673159Y-93017585D01*
X114493630Y-93111440D01*
X114335751Y-93238379D01*
X114205534Y-93393565D01*
X114107939Y-93571089D01*
X114046685Y-93764188D01*
X114045999Y-93770305D01*
X114045998Y-93770309D01*
X114044404Y-93784519D01*
X114024103Y-93965507D01*
X100585000Y-93965507D01*
X100585000Y-91425507D01*
X114024103Y-91425507D01*
X114041055Y-91627379D01*
X114096894Y-91822113D01*
X114099713Y-91827598D01*
X114186676Y-91996810D01*
X114186679Y-91996815D01*
X114189494Y-92002292D01*
X114315327Y-92161054D01*
X114469600Y-92292351D01*
X114646439Y-92391183D01*
X114839105Y-92453784D01*
X115040262Y-92477770D01*
X115046397Y-92477298D01*
X115046399Y-92477298D01*
X115236105Y-92462701D01*
X115236110Y-92462700D01*
X115242246Y-92462228D01*
X115248176Y-92460572D01*
X115248178Y-92460572D01*
X115339806Y-92434989D01*
X115437366Y-92407750D01*
X115466394Y-92393087D01*
X115612686Y-92319190D01*
X115612688Y-92319189D01*
X115618187Y-92316411D01*
X115777824Y-92191689D01*
X115804268Y-92161054D01*
X115906168Y-92043001D01*
X115910195Y-92038336D01*
X116010258Y-91862192D01*
X116074203Y-91669967D01*
X116099593Y-91468983D01*
X116099998Y-91440000D01*
X116098577Y-91425507D01*
X118342103Y-91425507D01*
X118359055Y-91627379D01*
X118414894Y-91822113D01*
X118417713Y-91827598D01*
X118504676Y-91996810D01*
X118504679Y-91996815D01*
X118507494Y-92002292D01*
X118633327Y-92161054D01*
X118787600Y-92292351D01*
X118964439Y-92391183D01*
X119157105Y-92453784D01*
X119358262Y-92477770D01*
X119364397Y-92477298D01*
X119364399Y-92477298D01*
X119554105Y-92462701D01*
X119554110Y-92462700D01*
X119560246Y-92462228D01*
X119566176Y-92460572D01*
X119566178Y-92460572D01*
X119657806Y-92434989D01*
X119755366Y-92407750D01*
X119784394Y-92393087D01*
X119930686Y-92319190D01*
X119930688Y-92319189D01*
X119936187Y-92316411D01*
X120095824Y-92191689D01*
X120122268Y-92161054D01*
X120224168Y-92043001D01*
X120228195Y-92038336D01*
X120328258Y-91862192D01*
X120392203Y-91669967D01*
X120417593Y-91468983D01*
X120417998Y-91440000D01*
X120398229Y-91238385D01*
X120396448Y-91232486D01*
X120396447Y-91232481D01*
X120341458Y-91050349D01*
X120339677Y-91044450D01*
X120244571Y-90865581D01*
X120240681Y-90860811D01*
X120240678Y-90860807D01*
X120120428Y-90713366D01*
X120120425Y-90713363D01*
X120116533Y-90708591D01*
X120099518Y-90694515D01*
X119965191Y-90583390D01*
X119965188Y-90583388D01*
X119960441Y-90579461D01*
X119782240Y-90483108D01*
X119685479Y-90453155D01*
X119594605Y-90425025D01*
X119594602Y-90425024D01*
X119588718Y-90423203D01*
X119582593Y-90422559D01*
X119582592Y-90422559D01*
X119393375Y-90402671D01*
X119393374Y-90402671D01*
X119387247Y-90402027D01*
X119303846Y-90409617D01*
X119191638Y-90419829D01*
X119191635Y-90419830D01*
X119185499Y-90420388D01*
X119179593Y-90422126D01*
X119179589Y-90422127D01*
X119034417Y-90464853D01*
X118991159Y-90477585D01*
X118811630Y-90571440D01*
X118653751Y-90698379D01*
X118523534Y-90853565D01*
X118425939Y-91031089D01*
X118364685Y-91224188D01*
X118363999Y-91230305D01*
X118363998Y-91230309D01*
X118362404Y-91244519D01*
X118342103Y-91425507D01*
X116098577Y-91425507D01*
X116080229Y-91238385D01*
X116078448Y-91232486D01*
X116078447Y-91232481D01*
X116023458Y-91050349D01*
X116021677Y-91044450D01*
X115926571Y-90865581D01*
X115922681Y-90860811D01*
X115922678Y-90860807D01*
X115802428Y-90713366D01*
X115802425Y-90713363D01*
X115798533Y-90708591D01*
X115781518Y-90694515D01*
X115647191Y-90583390D01*
X115647188Y-90583388D01*
X115642441Y-90579461D01*
X115464240Y-90483108D01*
X115367479Y-90453155D01*
X115276605Y-90425025D01*
X115276602Y-90425024D01*
X115270718Y-90423203D01*
X115264593Y-90422559D01*
X115264592Y-90422559D01*
X115075375Y-90402671D01*
X115075374Y-90402671D01*
X115069247Y-90402027D01*
X114985846Y-90409617D01*
X114873638Y-90419829D01*
X114873635Y-90419830D01*
X114867499Y-90420388D01*
X114861593Y-90422126D01*
X114861589Y-90422127D01*
X114716417Y-90464853D01*
X114673159Y-90477585D01*
X114493630Y-90571440D01*
X114335751Y-90698379D01*
X114205534Y-90853565D01*
X114107939Y-91031089D01*
X114046685Y-91224188D01*
X114045999Y-91230305D01*
X114045998Y-91230309D01*
X114044404Y-91244519D01*
X114024103Y-91425507D01*
X100585000Y-91425507D01*
X100585000Y-88885507D01*
X114024103Y-88885507D01*
X114041055Y-89087379D01*
X114096894Y-89282113D01*
X114099713Y-89287598D01*
X114186676Y-89456810D01*
X114186679Y-89456815D01*
X114189494Y-89462292D01*
X114315327Y-89621054D01*
X114469600Y-89752351D01*
X114646439Y-89851183D01*
X114839105Y-89913784D01*
X115040262Y-89937770D01*
X115046397Y-89937298D01*
X115046399Y-89937298D01*
X115236105Y-89922701D01*
X115236110Y-89922700D01*
X115242246Y-89922228D01*
X115248176Y-89920572D01*
X115248178Y-89920572D01*
X115339806Y-89894989D01*
X115437366Y-89867750D01*
X115466394Y-89853087D01*
X115612686Y-89779190D01*
X115612688Y-89779189D01*
X115618187Y-89776411D01*
X115777824Y-89651689D01*
X115804268Y-89621054D01*
X115906168Y-89503001D01*
X115910195Y-89498336D01*
X116010258Y-89322192D01*
X116074203Y-89129967D01*
X116099593Y-88928983D01*
X116099998Y-88900000D01*
X116098577Y-88885507D01*
X118342103Y-88885507D01*
X118359055Y-89087379D01*
X118414894Y-89282113D01*
X118417713Y-89287598D01*
X118504676Y-89456810D01*
X118504679Y-89456815D01*
X118507494Y-89462292D01*
X118633327Y-89621054D01*
X118787600Y-89752351D01*
X118964439Y-89851183D01*
X119157105Y-89913784D01*
X119358262Y-89937770D01*
X119364397Y-89937298D01*
X119364399Y-89937298D01*
X119554105Y-89922701D01*
X119554110Y-89922700D01*
X119560246Y-89922228D01*
X119566176Y-89920572D01*
X119566178Y-89920572D01*
X119657806Y-89894989D01*
X119755366Y-89867750D01*
X119784394Y-89853087D01*
X119930686Y-89779190D01*
X119930688Y-89779189D01*
X119936187Y-89776411D01*
X120095824Y-89651689D01*
X120122268Y-89621054D01*
X120224168Y-89503001D01*
X120228195Y-89498336D01*
X120328258Y-89322192D01*
X120392203Y-89129967D01*
X120417593Y-88928983D01*
X120417998Y-88900000D01*
X120398229Y-88698385D01*
X120396448Y-88692486D01*
X120396447Y-88692481D01*
X120341458Y-88510349D01*
X120339677Y-88504450D01*
X120244571Y-88325581D01*
X120240681Y-88320811D01*
X120240678Y-88320807D01*
X120120428Y-88173366D01*
X120120425Y-88173363D01*
X120116533Y-88168591D01*
X120099518Y-88154515D01*
X119965191Y-88043390D01*
X119965188Y-88043388D01*
X119960441Y-88039461D01*
X119782240Y-87943108D01*
X119685479Y-87913155D01*
X119594605Y-87885025D01*
X119594602Y-87885024D01*
X119588718Y-87883203D01*
X119582593Y-87882559D01*
X119582592Y-87882559D01*
X119393375Y-87862671D01*
X119393374Y-87862671D01*
X119387247Y-87862027D01*
X119303846Y-87869617D01*
X119191638Y-87879829D01*
X119191635Y-87879830D01*
X119185499Y-87880388D01*
X119179593Y-87882126D01*
X119179589Y-87882127D01*
X119034417Y-87924853D01*
X118991159Y-87937585D01*
X118811630Y-88031440D01*
X118653751Y-88158379D01*
X118523534Y-88313565D01*
X118425939Y-88491089D01*
X118364685Y-88684188D01*
X118363999Y-88690305D01*
X118363998Y-88690309D01*
X118362404Y-88704519D01*
X118342103Y-88885507D01*
X116098577Y-88885507D01*
X116080229Y-88698385D01*
X116078448Y-88692486D01*
X116078447Y-88692481D01*
X116023458Y-88510349D01*
X116021677Y-88504450D01*
X115926571Y-88325581D01*
X115922681Y-88320811D01*
X115922678Y-88320807D01*
X115802428Y-88173366D01*
X115802425Y-88173363D01*
X115798533Y-88168591D01*
X115781518Y-88154515D01*
X115647191Y-88043390D01*
X115647188Y-88043388D01*
X115642441Y-88039461D01*
X115464240Y-87943108D01*
X115367479Y-87913155D01*
X115276605Y-87885025D01*
X115276602Y-87885024D01*
X115270718Y-87883203D01*
X115264593Y-87882559D01*
X115264592Y-87882559D01*
X115075375Y-87862671D01*
X115075374Y-87862671D01*
X115069247Y-87862027D01*
X114985846Y-87869617D01*
X114873638Y-87879829D01*
X114873635Y-87879830D01*
X114867499Y-87880388D01*
X114861593Y-87882126D01*
X114861589Y-87882127D01*
X114716417Y-87924853D01*
X114673159Y-87937585D01*
X114493630Y-88031440D01*
X114335751Y-88158379D01*
X114205534Y-88313565D01*
X114107939Y-88491089D01*
X114046685Y-88684188D01*
X114045999Y-88690305D01*
X114045998Y-88690309D01*
X114044404Y-88704519D01*
X114024103Y-88885507D01*
X100585000Y-88885507D01*
X100585000Y-86345507D01*
X114024103Y-86345507D01*
X114041055Y-86547379D01*
X114096894Y-86742113D01*
X114099713Y-86747598D01*
X114186676Y-86916810D01*
X114186679Y-86916815D01*
X114189494Y-86922292D01*
X114315327Y-87081054D01*
X114469600Y-87212351D01*
X114646439Y-87311183D01*
X114839105Y-87373784D01*
X115040262Y-87397770D01*
X115046397Y-87397298D01*
X115046399Y-87397298D01*
X115236105Y-87382701D01*
X115236110Y-87382700D01*
X115242246Y-87382228D01*
X115248176Y-87380572D01*
X115248178Y-87380572D01*
X115339806Y-87354989D01*
X115437366Y-87327750D01*
X115466394Y-87313087D01*
X115612686Y-87239190D01*
X115612688Y-87239189D01*
X115618187Y-87236411D01*
X115777824Y-87111689D01*
X115804268Y-87081054D01*
X115906168Y-86963001D01*
X115910195Y-86958336D01*
X116010258Y-86782192D01*
X116074203Y-86589967D01*
X116099593Y-86388983D01*
X116099998Y-86360000D01*
X116098577Y-86345507D01*
X118342103Y-86345507D01*
X118359055Y-86547379D01*
X118414894Y-86742113D01*
X118417713Y-86747598D01*
X118504676Y-86916810D01*
X118504679Y-86916815D01*
X118507494Y-86922292D01*
X118633327Y-87081054D01*
X118787600Y-87212351D01*
X118964439Y-87311183D01*
X119157105Y-87373784D01*
X119358262Y-87397770D01*
X119364397Y-87397298D01*
X119364399Y-87397298D01*
X119554105Y-87382701D01*
X119554110Y-87382700D01*
X119560246Y-87382228D01*
X119566176Y-87380572D01*
X119566178Y-87380572D01*
X119657806Y-87354989D01*
X119755366Y-87327750D01*
X119784394Y-87313087D01*
X119930686Y-87239190D01*
X119930688Y-87239189D01*
X119936187Y-87236411D01*
X120095824Y-87111689D01*
X120122268Y-87081054D01*
X120224168Y-86963001D01*
X120228195Y-86958336D01*
X120328258Y-86782192D01*
X120392203Y-86589967D01*
X120417593Y-86388983D01*
X120417998Y-86360000D01*
X120398229Y-86158385D01*
X120396448Y-86152486D01*
X120396447Y-86152481D01*
X120341458Y-85970349D01*
X120339677Y-85964450D01*
X120244571Y-85785581D01*
X120240681Y-85780811D01*
X120240678Y-85780807D01*
X120120428Y-85633366D01*
X120120425Y-85633363D01*
X120116533Y-85628591D01*
X120099518Y-85614515D01*
X119965191Y-85503390D01*
X119965188Y-85503388D01*
X119960441Y-85499461D01*
X119782240Y-85403108D01*
X119685479Y-85373155D01*
X119594605Y-85345025D01*
X119594602Y-85345024D01*
X119588718Y-85343203D01*
X119582593Y-85342559D01*
X119582592Y-85342559D01*
X119393375Y-85322671D01*
X119393374Y-85322671D01*
X119387247Y-85322027D01*
X119303846Y-85329617D01*
X119191638Y-85339829D01*
X119191635Y-85339830D01*
X119185499Y-85340388D01*
X119179593Y-85342126D01*
X119179589Y-85342127D01*
X119034417Y-85384853D01*
X118991159Y-85397585D01*
X118811630Y-85491440D01*
X118653751Y-85618379D01*
X118523534Y-85773565D01*
X118425939Y-85951089D01*
X118364685Y-86144188D01*
X118363999Y-86150305D01*
X118363998Y-86150309D01*
X118362404Y-86164519D01*
X118342103Y-86345507D01*
X116098577Y-86345507D01*
X116080229Y-86158385D01*
X116078448Y-86152486D01*
X116078447Y-86152481D01*
X116023458Y-85970349D01*
X116021677Y-85964450D01*
X115926571Y-85785581D01*
X115922681Y-85780811D01*
X115922678Y-85780807D01*
X115802428Y-85633366D01*
X115802425Y-85633363D01*
X115798533Y-85628591D01*
X115781518Y-85614515D01*
X115647191Y-85503390D01*
X115647188Y-85503388D01*
X115642441Y-85499461D01*
X115464240Y-85403108D01*
X115367479Y-85373155D01*
X115276605Y-85345025D01*
X115276602Y-85345024D01*
X115270718Y-85343203D01*
X115264593Y-85342559D01*
X115264592Y-85342559D01*
X115075375Y-85322671D01*
X115075374Y-85322671D01*
X115069247Y-85322027D01*
X114985846Y-85329617D01*
X114873638Y-85339829D01*
X114873635Y-85339830D01*
X114867499Y-85340388D01*
X114861593Y-85342126D01*
X114861589Y-85342127D01*
X114716417Y-85384853D01*
X114673159Y-85397585D01*
X114493630Y-85491440D01*
X114335751Y-85618379D01*
X114205534Y-85773565D01*
X114107939Y-85951089D01*
X114046685Y-86144188D01*
X114045999Y-86150305D01*
X114045998Y-86150309D01*
X114044404Y-86164519D01*
X114024103Y-86345507D01*
X100585000Y-86345507D01*
X100585000Y-83805507D01*
X114024103Y-83805507D01*
X114041055Y-84007379D01*
X114096894Y-84202113D01*
X114099713Y-84207598D01*
X114186676Y-84376810D01*
X114186679Y-84376815D01*
X114189494Y-84382292D01*
X114315327Y-84541054D01*
X114469600Y-84672351D01*
X114646439Y-84771183D01*
X114839105Y-84833784D01*
X115040262Y-84857770D01*
X115046397Y-84857298D01*
X115046399Y-84857298D01*
X115236105Y-84842701D01*
X115236110Y-84842700D01*
X115242246Y-84842228D01*
X115248176Y-84840572D01*
X115248178Y-84840572D01*
X115339806Y-84814989D01*
X115437366Y-84787750D01*
X115466394Y-84773087D01*
X115612686Y-84699190D01*
X115612688Y-84699189D01*
X115618187Y-84696411D01*
X115777824Y-84571689D01*
X115804268Y-84541054D01*
X115906168Y-84423001D01*
X115910195Y-84418336D01*
X116010258Y-84242192D01*
X116074203Y-84049967D01*
X116099593Y-83848983D01*
X116099998Y-83820000D01*
X116098577Y-83805507D01*
X118342103Y-83805507D01*
X118359055Y-84007379D01*
X118414894Y-84202113D01*
X118417713Y-84207598D01*
X118504676Y-84376810D01*
X118504679Y-84376815D01*
X118507494Y-84382292D01*
X118633327Y-84541054D01*
X118787600Y-84672351D01*
X118964439Y-84771183D01*
X119157105Y-84833784D01*
X119358262Y-84857770D01*
X119364397Y-84857298D01*
X119364399Y-84857298D01*
X119554105Y-84842701D01*
X119554110Y-84842700D01*
X119560246Y-84842228D01*
X119566176Y-84840572D01*
X119566178Y-84840572D01*
X119657806Y-84814989D01*
X119755366Y-84787750D01*
X119784394Y-84773087D01*
X119930686Y-84699190D01*
X119930688Y-84699189D01*
X119936187Y-84696411D01*
X120095824Y-84571689D01*
X120122268Y-84541054D01*
X120224168Y-84423001D01*
X120228195Y-84418336D01*
X120328258Y-84242192D01*
X120392203Y-84049967D01*
X120417593Y-83848983D01*
X120417998Y-83820000D01*
X120398229Y-83618385D01*
X120396448Y-83612486D01*
X120396447Y-83612481D01*
X120341458Y-83430349D01*
X120339677Y-83424450D01*
X120244571Y-83245581D01*
X120240681Y-83240811D01*
X120240678Y-83240807D01*
X120120428Y-83093366D01*
X120120425Y-83093363D01*
X120116533Y-83088591D01*
X120099518Y-83074515D01*
X119965191Y-82963390D01*
X119965188Y-82963388D01*
X119960441Y-82959461D01*
X119782240Y-82863108D01*
X119674407Y-82829728D01*
X119594605Y-82805025D01*
X119594602Y-82805024D01*
X119588718Y-82803203D01*
X119582593Y-82802559D01*
X119582592Y-82802559D01*
X119393375Y-82782671D01*
X119393374Y-82782671D01*
X119387247Y-82782027D01*
X119303846Y-82789617D01*
X119191638Y-82799829D01*
X119191635Y-82799830D01*
X119185499Y-82800388D01*
X119179593Y-82802126D01*
X119179589Y-82802127D01*
X119034417Y-82844853D01*
X118991159Y-82857585D01*
X118811630Y-82951440D01*
X118653751Y-83078379D01*
X118523534Y-83233565D01*
X118425939Y-83411089D01*
X118364685Y-83604188D01*
X118363999Y-83610305D01*
X118363998Y-83610309D01*
X118362404Y-83624519D01*
X118342103Y-83805507D01*
X116098577Y-83805507D01*
X116080229Y-83618385D01*
X116078448Y-83612486D01*
X116078447Y-83612481D01*
X116023458Y-83430349D01*
X116021677Y-83424450D01*
X115926571Y-83245581D01*
X115922681Y-83240811D01*
X115922678Y-83240807D01*
X115802428Y-83093366D01*
X115802425Y-83093363D01*
X115798533Y-83088591D01*
X115781518Y-83074515D01*
X115647191Y-82963390D01*
X115647188Y-82963388D01*
X115642441Y-82959461D01*
X115464240Y-82863108D01*
X115356406Y-82829728D01*
X115297246Y-82790477D01*
X115268699Y-82725472D01*
X115279828Y-82655353D01*
X115327099Y-82602382D01*
X115361054Y-82587656D01*
X115516919Y-82545892D01*
X115527211Y-82542146D01*
X115729825Y-82447665D01*
X115739315Y-82442187D01*
X115798386Y-82400825D01*
X115806760Y-82390349D01*
X115799691Y-82376901D01*
X115074812Y-81652022D01*
X115060868Y-81644408D01*
X115059035Y-81644539D01*
X115052420Y-81648790D01*
X114323587Y-82377623D01*
X114317157Y-82389397D01*
X114326453Y-82401412D01*
X114384685Y-82442187D01*
X114394175Y-82447665D01*
X114596789Y-82542146D01*
X114607078Y-82545891D01*
X114763036Y-82587680D01*
X114823658Y-82624632D01*
X114854680Y-82688493D01*
X114846251Y-82758987D01*
X114801048Y-82813734D01*
X114766000Y-82830261D01*
X114673159Y-82857585D01*
X114493630Y-82951440D01*
X114335751Y-83078379D01*
X114205534Y-83233565D01*
X114107939Y-83411089D01*
X114046685Y-83604188D01*
X114045999Y-83610305D01*
X114045998Y-83610309D01*
X114044404Y-83624519D01*
X114024103Y-83805507D01*
X100585000Y-83805507D01*
X100585000Y-81285475D01*
X113716859Y-81285475D01*
X113736344Y-81508184D01*
X113738247Y-81518979D01*
X113796108Y-81734919D01*
X113799854Y-81745211D01*
X113894335Y-81947825D01*
X113899813Y-81957315D01*
X113941175Y-82016386D01*
X113951651Y-82024760D01*
X113965099Y-82017691D01*
X114689978Y-81292812D01*
X114696356Y-81281132D01*
X115426408Y-81281132D01*
X115426539Y-81282965D01*
X115430790Y-81289580D01*
X116159623Y-82018413D01*
X116171397Y-82024843D01*
X116183412Y-82015547D01*
X116224187Y-81957315D01*
X116229665Y-81947825D01*
X116324146Y-81745211D01*
X116327892Y-81734919D01*
X116385753Y-81518979D01*
X116387656Y-81508184D01*
X116407141Y-81285475D01*
X116407141Y-81274525D01*
X116406352Y-81265507D01*
X118342103Y-81265507D01*
X118359055Y-81467379D01*
X118360754Y-81473304D01*
X118411074Y-81648790D01*
X118414894Y-81662113D01*
X118417713Y-81667598D01*
X118504676Y-81836810D01*
X118504679Y-81836815D01*
X118507494Y-81842292D01*
X118633327Y-82001054D01*
X118787600Y-82132351D01*
X118964439Y-82231183D01*
X119157105Y-82293784D01*
X119358262Y-82317770D01*
X119364397Y-82317298D01*
X119364399Y-82317298D01*
X119554105Y-82302701D01*
X119554110Y-82302700D01*
X119560246Y-82302228D01*
X119566176Y-82300572D01*
X119566178Y-82300572D01*
X119657806Y-82274989D01*
X119755366Y-82247750D01*
X119784394Y-82233087D01*
X119930686Y-82159190D01*
X119930688Y-82159189D01*
X119936187Y-82156411D01*
X120095824Y-82031689D01*
X120109758Y-82015547D01*
X120224168Y-81883001D01*
X120228195Y-81878336D01*
X120328258Y-81702192D01*
X120344948Y-81652022D01*
X120390256Y-81515819D01*
X120392203Y-81509967D01*
X120417593Y-81308983D01*
X120417864Y-81289580D01*
X120417949Y-81283522D01*
X120417949Y-81283518D01*
X120417998Y-81280000D01*
X120398229Y-81078385D01*
X120396448Y-81072486D01*
X120396447Y-81072481D01*
X120341458Y-80890349D01*
X120339677Y-80884450D01*
X120244571Y-80705581D01*
X120240681Y-80700811D01*
X120240678Y-80700807D01*
X120120428Y-80553366D01*
X120120425Y-80553363D01*
X120116533Y-80548591D01*
X120109899Y-80543103D01*
X119965191Y-80423390D01*
X119965188Y-80423388D01*
X119960441Y-80419461D01*
X119782240Y-80323108D01*
X119685479Y-80293155D01*
X119594605Y-80265025D01*
X119594602Y-80265024D01*
X119588718Y-80263203D01*
X119582593Y-80262559D01*
X119582592Y-80262559D01*
X119393375Y-80242671D01*
X119393374Y-80242671D01*
X119387247Y-80242027D01*
X119303846Y-80249617D01*
X119191638Y-80259829D01*
X119191635Y-80259830D01*
X119185499Y-80260388D01*
X119179593Y-80262126D01*
X119179589Y-80262127D01*
X119034417Y-80304853D01*
X118991159Y-80317585D01*
X118811630Y-80411440D01*
X118653751Y-80538379D01*
X118523534Y-80693565D01*
X118425939Y-80871089D01*
X118364685Y-81064188D01*
X118363999Y-81070305D01*
X118363998Y-81070309D01*
X118362404Y-81084519D01*
X118342103Y-81265507D01*
X116406352Y-81265507D01*
X116387656Y-81051816D01*
X116385753Y-81041021D01*
X116327892Y-80825081D01*
X116324146Y-80814789D01*
X116229665Y-80612175D01*
X116224187Y-80602685D01*
X116182825Y-80543614D01*
X116172349Y-80535240D01*
X116158901Y-80542309D01*
X115434022Y-81267188D01*
X115426408Y-81281132D01*
X114696356Y-81281132D01*
X114697592Y-81278868D01*
X114697461Y-81277035D01*
X114693210Y-81270420D01*
X113964377Y-80541587D01*
X113952603Y-80535157D01*
X113940588Y-80544453D01*
X113899813Y-80602685D01*
X113894335Y-80612175D01*
X113799854Y-80814789D01*
X113796108Y-80825081D01*
X113738247Y-81041021D01*
X113736344Y-81051816D01*
X113716859Y-81274525D01*
X113716859Y-81285475D01*
X100585000Y-81285475D01*
X100585000Y-78725507D01*
X114024103Y-78725507D01*
X114041055Y-78927379D01*
X114096894Y-79122113D01*
X114099713Y-79127598D01*
X114186676Y-79296810D01*
X114186679Y-79296815D01*
X114189494Y-79302292D01*
X114315327Y-79461054D01*
X114469600Y-79592351D01*
X114646439Y-79691183D01*
X114652299Y-79693087D01*
X114768783Y-79730935D01*
X114827389Y-79771008D01*
X114855026Y-79836405D01*
X114842919Y-79906362D01*
X114794913Y-79958668D01*
X114762458Y-79972475D01*
X114607081Y-80014108D01*
X114596789Y-80017854D01*
X114394175Y-80112335D01*
X114384685Y-80117813D01*
X114325614Y-80159175D01*
X114317240Y-80169651D01*
X114324309Y-80183099D01*
X115049188Y-80907978D01*
X115063132Y-80915592D01*
X115064965Y-80915461D01*
X115071580Y-80911210D01*
X115800413Y-80182377D01*
X115806843Y-80170603D01*
X115797547Y-80158588D01*
X115739315Y-80117813D01*
X115729825Y-80112335D01*
X115527211Y-80017854D01*
X115516919Y-80014108D01*
X115361298Y-79972410D01*
X115300675Y-79935458D01*
X115269654Y-79871598D01*
X115278082Y-79801103D01*
X115323285Y-79746356D01*
X115360025Y-79729345D01*
X115431424Y-79709410D01*
X115431433Y-79709407D01*
X115437366Y-79707750D01*
X115466394Y-79693087D01*
X115612686Y-79619190D01*
X115612688Y-79619189D01*
X115618187Y-79616411D01*
X115777824Y-79491689D01*
X115804268Y-79461054D01*
X115906168Y-79343001D01*
X115910195Y-79338336D01*
X116010258Y-79162192D01*
X116074203Y-78969967D01*
X116099593Y-78768983D01*
X116099998Y-78740000D01*
X116098577Y-78725507D01*
X118342103Y-78725507D01*
X118359055Y-78927379D01*
X118414894Y-79122113D01*
X118417713Y-79127598D01*
X118504676Y-79296810D01*
X118504679Y-79296815D01*
X118507494Y-79302292D01*
X118633327Y-79461054D01*
X118787600Y-79592351D01*
X118964439Y-79691183D01*
X119157105Y-79753784D01*
X119358262Y-79777770D01*
X119364397Y-79777298D01*
X119364399Y-79777298D01*
X119554105Y-79762701D01*
X119554110Y-79762700D01*
X119560246Y-79762228D01*
X119566176Y-79760572D01*
X119566178Y-79760572D01*
X119749420Y-79709410D01*
X119755366Y-79707750D01*
X119784394Y-79693087D01*
X119930686Y-79619190D01*
X119930688Y-79619189D01*
X119936187Y-79616411D01*
X120095824Y-79491689D01*
X120122268Y-79461054D01*
X120224168Y-79343001D01*
X120228195Y-79338336D01*
X120328258Y-79162192D01*
X120392203Y-78969967D01*
X120417593Y-78768983D01*
X120417998Y-78740000D01*
X120398229Y-78538385D01*
X120396448Y-78532486D01*
X120396447Y-78532481D01*
X120341458Y-78350349D01*
X120339677Y-78344450D01*
X120244571Y-78165581D01*
X120240681Y-78160811D01*
X120240678Y-78160807D01*
X120120428Y-78013366D01*
X120120425Y-78013363D01*
X120116533Y-78008591D01*
X120071293Y-77971165D01*
X119965191Y-77883390D01*
X119965188Y-77883388D01*
X119960441Y-77879461D01*
X119782240Y-77783108D01*
X119685479Y-77753155D01*
X119594605Y-77725025D01*
X119594602Y-77725024D01*
X119588718Y-77723203D01*
X119582593Y-77722559D01*
X119582592Y-77722559D01*
X119393375Y-77702671D01*
X119393374Y-77702671D01*
X119387247Y-77702027D01*
X119303846Y-77709617D01*
X119191638Y-77719829D01*
X119191635Y-77719830D01*
X119185499Y-77720388D01*
X119179593Y-77722126D01*
X119179589Y-77722127D01*
X119034417Y-77764853D01*
X118991159Y-77777585D01*
X118811630Y-77871440D01*
X118653751Y-77998379D01*
X118523534Y-78153565D01*
X118425939Y-78331089D01*
X118364685Y-78524188D01*
X118363999Y-78530305D01*
X118363998Y-78530309D01*
X118362404Y-78544519D01*
X118342103Y-78725507D01*
X116098577Y-78725507D01*
X116080229Y-78538385D01*
X116078448Y-78532486D01*
X116078447Y-78532481D01*
X116023458Y-78350349D01*
X116021677Y-78344450D01*
X115926571Y-78165581D01*
X115922681Y-78160811D01*
X115922678Y-78160807D01*
X115802428Y-78013366D01*
X115802425Y-78013363D01*
X115798533Y-78008591D01*
X115753293Y-77971165D01*
X115647191Y-77883390D01*
X115647188Y-77883388D01*
X115642441Y-77879461D01*
X115464240Y-77783108D01*
X115367479Y-77753155D01*
X115276605Y-77725025D01*
X115276602Y-77725024D01*
X115270718Y-77723203D01*
X115264593Y-77722559D01*
X115264592Y-77722559D01*
X115075375Y-77702671D01*
X115075374Y-77702671D01*
X115069247Y-77702027D01*
X114985846Y-77709617D01*
X114873638Y-77719829D01*
X114873635Y-77719830D01*
X114867499Y-77720388D01*
X114861593Y-77722126D01*
X114861589Y-77722127D01*
X114716417Y-77764853D01*
X114673159Y-77777585D01*
X114493630Y-77871440D01*
X114335751Y-77998379D01*
X114205534Y-78153565D01*
X114107939Y-78331089D01*
X114046685Y-78524188D01*
X114045999Y-78530305D01*
X114045998Y-78530309D01*
X114044404Y-78544519D01*
X114024103Y-78725507D01*
X100585000Y-78725507D01*
X100585000Y-76327000D01*
X100605002Y-76258879D01*
X100658658Y-76212386D01*
X100711000Y-76201000D01*
X116585802Y-76201000D01*
X116586000Y-76201082D01*
X116586765Y-76200765D01*
X116587000Y-76200198D01*
X116587082Y-76200000D01*
X116587000Y-76199802D01*
X116587000Y-76185507D01*
X118342103Y-76185507D01*
X118359055Y-76387379D01*
X118414894Y-76582113D01*
X118417713Y-76587598D01*
X118504676Y-76756810D01*
X118504679Y-76756815D01*
X118507494Y-76762292D01*
X118633327Y-76921054D01*
X118638021Y-76925049D01*
X118662009Y-76945464D01*
X118787600Y-77052351D01*
X118964439Y-77151183D01*
X119157105Y-77213784D01*
X119358262Y-77237770D01*
X119364397Y-77237298D01*
X119364399Y-77237298D01*
X119554105Y-77222701D01*
X119554110Y-77222700D01*
X119560246Y-77222228D01*
X119566176Y-77220572D01*
X119566178Y-77220572D01*
X119657806Y-77194989D01*
X119755366Y-77167750D01*
X119784394Y-77153087D01*
X119930686Y-77079190D01*
X119930688Y-77079189D01*
X119936187Y-77076411D01*
X120095824Y-76951689D01*
X120122268Y-76921054D01*
X120224168Y-76803001D01*
X120228195Y-76798336D01*
X120328258Y-76622192D01*
X120392203Y-76429967D01*
X120417593Y-76228983D01*
X120417998Y-76200000D01*
X120416577Y-76185507D01*
X133582103Y-76185507D01*
X133599055Y-76387379D01*
X133654894Y-76582113D01*
X133657713Y-76587598D01*
X133744676Y-76756810D01*
X133744679Y-76756815D01*
X133747494Y-76762292D01*
X133873327Y-76921054D01*
X133878021Y-76925049D01*
X133902009Y-76945464D01*
X134027600Y-77052351D01*
X134204439Y-77151183D01*
X134397105Y-77213784D01*
X134598262Y-77237770D01*
X134604397Y-77237298D01*
X134604399Y-77237298D01*
X134794105Y-77222701D01*
X134794110Y-77222700D01*
X134800246Y-77222228D01*
X134806176Y-77220572D01*
X134806178Y-77220572D01*
X134897806Y-77194989D01*
X134995366Y-77167750D01*
X135024394Y-77153087D01*
X135170686Y-77079190D01*
X135170688Y-77079189D01*
X135176187Y-77076411D01*
X135335824Y-76951689D01*
X135362268Y-76921054D01*
X135464168Y-76803001D01*
X135468195Y-76798336D01*
X135568258Y-76622192D01*
X135632203Y-76429967D01*
X135657593Y-76228983D01*
X135657998Y-76200000D01*
X135638229Y-75998385D01*
X135636448Y-75992486D01*
X135636447Y-75992481D01*
X135581458Y-75810349D01*
X135579677Y-75804450D01*
X135484571Y-75625581D01*
X135480681Y-75620811D01*
X135480678Y-75620807D01*
X135360428Y-75473366D01*
X135360425Y-75473363D01*
X135356533Y-75468591D01*
X135339518Y-75454515D01*
X135205191Y-75343390D01*
X135205188Y-75343388D01*
X135200441Y-75339461D01*
X135022240Y-75243108D01*
X134925479Y-75213156D01*
X134834605Y-75185025D01*
X134834602Y-75185024D01*
X134828718Y-75183203D01*
X134822593Y-75182559D01*
X134822592Y-75182559D01*
X134633375Y-75162671D01*
X134633374Y-75162671D01*
X134627247Y-75162027D01*
X134543846Y-75169617D01*
X134431638Y-75179829D01*
X134431635Y-75179830D01*
X134425499Y-75180388D01*
X134419593Y-75182126D01*
X134419589Y-75182127D01*
X134274417Y-75224853D01*
X134231159Y-75237585D01*
X134051630Y-75331440D01*
X133893751Y-75458379D01*
X133763534Y-75613565D01*
X133665939Y-75791089D01*
X133604685Y-75984188D01*
X133603999Y-75990305D01*
X133603998Y-75990309D01*
X133602404Y-76004519D01*
X133582103Y-76185507D01*
X120416577Y-76185507D01*
X120398229Y-75998385D01*
X120396448Y-75992486D01*
X120396447Y-75992481D01*
X120341458Y-75810349D01*
X120339677Y-75804450D01*
X120244571Y-75625581D01*
X120240681Y-75620811D01*
X120240678Y-75620807D01*
X120120428Y-75473366D01*
X120120425Y-75473363D01*
X120116533Y-75468591D01*
X120099518Y-75454515D01*
X119965191Y-75343390D01*
X119965188Y-75343388D01*
X119960441Y-75339461D01*
X119782240Y-75243108D01*
X119685479Y-75213156D01*
X119594605Y-75185025D01*
X119594602Y-75185024D01*
X119588718Y-75183203D01*
X119582593Y-75182559D01*
X119582592Y-75182559D01*
X119393375Y-75162671D01*
X119393374Y-75162671D01*
X119387247Y-75162027D01*
X119303846Y-75169617D01*
X119191638Y-75179829D01*
X119191635Y-75179830D01*
X119185499Y-75180388D01*
X119179593Y-75182126D01*
X119179589Y-75182127D01*
X119034417Y-75224853D01*
X118991159Y-75237585D01*
X118811630Y-75331440D01*
X118653751Y-75458379D01*
X118523534Y-75613565D01*
X118425939Y-75791089D01*
X118364685Y-75984188D01*
X118363999Y-75990305D01*
X118363998Y-75990309D01*
X118362404Y-76004519D01*
X118342103Y-76185507D01*
X116587000Y-76185507D01*
X116587000Y-73645507D01*
X118342103Y-73645507D01*
X118342619Y-73651650D01*
X118355914Y-73809970D01*
X118359055Y-73847379D01*
X118414894Y-74042113D01*
X118417713Y-74047598D01*
X118504676Y-74216810D01*
X118504679Y-74216815D01*
X118507494Y-74222292D01*
X118633327Y-74381054D01*
X118787600Y-74512351D01*
X118964439Y-74611183D01*
X119157105Y-74673784D01*
X119358262Y-74697770D01*
X119364397Y-74697298D01*
X119364399Y-74697298D01*
X119554105Y-74682701D01*
X119554110Y-74682700D01*
X119560246Y-74682228D01*
X119566176Y-74680572D01*
X119566178Y-74680572D01*
X119657806Y-74654989D01*
X119755366Y-74627750D01*
X119784394Y-74613087D01*
X119930686Y-74539190D01*
X119930688Y-74539189D01*
X119936187Y-74536411D01*
X120095824Y-74411689D01*
X120122268Y-74381054D01*
X120224168Y-74263001D01*
X120228195Y-74258336D01*
X120328258Y-74082192D01*
X120392203Y-73889967D01*
X120417593Y-73688983D01*
X120417998Y-73660000D01*
X120416577Y-73645507D01*
X133582103Y-73645507D01*
X133582619Y-73651650D01*
X133595914Y-73809970D01*
X133599055Y-73847379D01*
X133654894Y-74042113D01*
X133657713Y-74047598D01*
X133744676Y-74216810D01*
X133744679Y-74216815D01*
X133747494Y-74222292D01*
X133873327Y-74381054D01*
X134027600Y-74512351D01*
X134204439Y-74611183D01*
X134397105Y-74673784D01*
X134598262Y-74697770D01*
X134604397Y-74697298D01*
X134604399Y-74697298D01*
X134794105Y-74682701D01*
X134794110Y-74682700D01*
X134800246Y-74682228D01*
X134806176Y-74680572D01*
X134806178Y-74680572D01*
X134897806Y-74654989D01*
X134995366Y-74627750D01*
X135024394Y-74613087D01*
X135170686Y-74539190D01*
X135170688Y-74539189D01*
X135176187Y-74536411D01*
X135335824Y-74411689D01*
X135362268Y-74381054D01*
X135464168Y-74263001D01*
X135468195Y-74258336D01*
X135568258Y-74082192D01*
X135632203Y-73889967D01*
X135657593Y-73688983D01*
X135657998Y-73660000D01*
X135638229Y-73458385D01*
X135636448Y-73452486D01*
X135636447Y-73452481D01*
X135581458Y-73270349D01*
X135579677Y-73264450D01*
X135516170Y-73145010D01*
X135487465Y-73091023D01*
X135487463Y-73091020D01*
X135484571Y-73085581D01*
X135480681Y-73080811D01*
X135480678Y-73080807D01*
X135360428Y-72933366D01*
X135360425Y-72933363D01*
X135356533Y-72928591D01*
X135339518Y-72914515D01*
X135205191Y-72803390D01*
X135205188Y-72803388D01*
X135200441Y-72799461D01*
X135022240Y-72703108D01*
X134914406Y-72669728D01*
X134855246Y-72630477D01*
X134826699Y-72565472D01*
X134837828Y-72495353D01*
X134885099Y-72442382D01*
X134919054Y-72427656D01*
X135074919Y-72385892D01*
X135085211Y-72382146D01*
X135287825Y-72287665D01*
X135297315Y-72282187D01*
X135356386Y-72240825D01*
X135364760Y-72230349D01*
X135357691Y-72216901D01*
X134632812Y-71492022D01*
X134618868Y-71484408D01*
X134617035Y-71484539D01*
X134610420Y-71488790D01*
X133881587Y-72217623D01*
X133875157Y-72229397D01*
X133884453Y-72241412D01*
X133942685Y-72282187D01*
X133952175Y-72287665D01*
X134154789Y-72382146D01*
X134165078Y-72385891D01*
X134321036Y-72427680D01*
X134381658Y-72464632D01*
X134412680Y-72528493D01*
X134404251Y-72598987D01*
X134359048Y-72653734D01*
X134324000Y-72670261D01*
X134231159Y-72697585D01*
X134051630Y-72791440D01*
X133893751Y-72918379D01*
X133763534Y-73073565D01*
X133665939Y-73251089D01*
X133604685Y-73444188D01*
X133603999Y-73450305D01*
X133603998Y-73450309D01*
X133586050Y-73610322D01*
X133582103Y-73645507D01*
X120416577Y-73645507D01*
X120398229Y-73458385D01*
X120396448Y-73452486D01*
X120396447Y-73452481D01*
X120341458Y-73270349D01*
X120339677Y-73264450D01*
X120276170Y-73145010D01*
X120247465Y-73091023D01*
X120247463Y-73091020D01*
X120244571Y-73085581D01*
X120240681Y-73080811D01*
X120240678Y-73080807D01*
X120120428Y-72933366D01*
X120120425Y-72933363D01*
X120116533Y-72928591D01*
X120099518Y-72914515D01*
X119965191Y-72803390D01*
X119965188Y-72803388D01*
X119960441Y-72799461D01*
X119782240Y-72703108D01*
X119674407Y-72669728D01*
X119594605Y-72645025D01*
X119594602Y-72645024D01*
X119588718Y-72643203D01*
X119582593Y-72642559D01*
X119582592Y-72642559D01*
X119393375Y-72622671D01*
X119393374Y-72622671D01*
X119387247Y-72622027D01*
X119303846Y-72629617D01*
X119191638Y-72639829D01*
X119191635Y-72639830D01*
X119185499Y-72640388D01*
X119179593Y-72642126D01*
X119179589Y-72642127D01*
X119034417Y-72684853D01*
X118991159Y-72697585D01*
X118811630Y-72791440D01*
X118653751Y-72918379D01*
X118523534Y-73073565D01*
X118425939Y-73251089D01*
X118364685Y-73444188D01*
X118363999Y-73450305D01*
X118363998Y-73450309D01*
X118346050Y-73610322D01*
X118342103Y-73645507D01*
X116587000Y-73645507D01*
X116587000Y-71105507D01*
X118342103Y-71105507D01*
X118359055Y-71307379D01*
X118360754Y-71313304D01*
X118411074Y-71488790D01*
X118414894Y-71502113D01*
X118417713Y-71507598D01*
X118504676Y-71676810D01*
X118504679Y-71676815D01*
X118507494Y-71682292D01*
X118633327Y-71841054D01*
X118638021Y-71845049D01*
X118730376Y-71923649D01*
X118787600Y-71972351D01*
X118964439Y-72071183D01*
X119157105Y-72133784D01*
X119358262Y-72157770D01*
X119364397Y-72157298D01*
X119364399Y-72157298D01*
X119554105Y-72142701D01*
X119554110Y-72142700D01*
X119560246Y-72142228D01*
X119566176Y-72140572D01*
X119566178Y-72140572D01*
X119658533Y-72114786D01*
X119755366Y-72087750D01*
X119784394Y-72073087D01*
X119930686Y-71999190D01*
X119930688Y-71999189D01*
X119936187Y-71996411D01*
X120095824Y-71871689D01*
X120109758Y-71855547D01*
X120168404Y-71787604D01*
X120228195Y-71718336D01*
X120328258Y-71542192D01*
X120344948Y-71492022D01*
X120382257Y-71379865D01*
X120392203Y-71349967D01*
X120417593Y-71148983D01*
X120417864Y-71129580D01*
X120417922Y-71125475D01*
X133274859Y-71125475D01*
X133294344Y-71348184D01*
X133296247Y-71358979D01*
X133354108Y-71574919D01*
X133357854Y-71585211D01*
X133452335Y-71787825D01*
X133457813Y-71797315D01*
X133499175Y-71856386D01*
X133509651Y-71864760D01*
X133523099Y-71857691D01*
X134247978Y-71132812D01*
X134254356Y-71121132D01*
X134984408Y-71121132D01*
X134984539Y-71122965D01*
X134988790Y-71129580D01*
X135717623Y-71858413D01*
X135729397Y-71864843D01*
X135741412Y-71855547D01*
X135782187Y-71797315D01*
X135787665Y-71787825D01*
X135821778Y-71714669D01*
X139150001Y-71714669D01*
X139150371Y-71721490D01*
X139155895Y-71772352D01*
X139159521Y-71787604D01*
X139204676Y-71908054D01*
X139213214Y-71923649D01*
X139289715Y-72025724D01*
X139302276Y-72038285D01*
X139404351Y-72114786D01*
X139419946Y-72123324D01*
X139540394Y-72168478D01*
X139555649Y-72172105D01*
X139606514Y-72177631D01*
X139613328Y-72178000D01*
X139885047Y-72178000D01*
X139953168Y-72198002D01*
X139999661Y-72251658D01*
X140009765Y-72321932D01*
X139980271Y-72386512D01*
X139925652Y-72423278D01*
X139893100Y-72434359D01*
X139893095Y-72434361D01*
X139886431Y-72436630D01*
X139880436Y-72440318D01*
X139880432Y-72440320D01*
X139749021Y-72521165D01*
X139749019Y-72521167D01*
X139743022Y-72524856D01*
X139680911Y-72585680D01*
X139643795Y-72622027D01*
X139622724Y-72642661D01*
X139531515Y-72784190D01*
X139529105Y-72790810D01*
X139529104Y-72790813D01*
X139502721Y-72863299D01*
X139473927Y-72942409D01*
X139452825Y-73109455D01*
X139453512Y-73116462D01*
X139453512Y-73116465D01*
X139456311Y-73145010D01*
X139469255Y-73277025D01*
X139522402Y-73436791D01*
X139526049Y-73442813D01*
X139526050Y-73442815D01*
X139539195Y-73464519D01*
X139609624Y-73580812D01*
X139614513Y-73585875D01*
X139614514Y-73585876D01*
X139666185Y-73639382D01*
X139726586Y-73701929D01*
X139732483Y-73705788D01*
X139861577Y-73790266D01*
X139861581Y-73790268D01*
X139867475Y-73794125D01*
X140025289Y-73852815D01*
X140032270Y-73853746D01*
X140032272Y-73853747D01*
X140077812Y-73859823D01*
X140192183Y-73875083D01*
X140199194Y-73874445D01*
X140199198Y-73874445D01*
X140352843Y-73860462D01*
X140359864Y-73859823D01*
X140366566Y-73857645D01*
X140366568Y-73857645D01*
X140513298Y-73809970D01*
X140513301Y-73809969D01*
X140519997Y-73807793D01*
X140664623Y-73721578D01*
X140669717Y-73716727D01*
X140669721Y-73716724D01*
X140781454Y-73610322D01*
X140781455Y-73610320D01*
X140786554Y-73605465D01*
X140802934Y-73580812D01*
X140875836Y-73471085D01*
X140879731Y-73465223D01*
X140882329Y-73458385D01*
X140937019Y-73314409D01*
X140939521Y-73307823D01*
X140962955Y-73141088D01*
X140963249Y-73120000D01*
X140944481Y-72952676D01*
X140889108Y-72793668D01*
X140799884Y-72650879D01*
X140794071Y-72645025D01*
X140686205Y-72536403D01*
X140686201Y-72536400D01*
X140681242Y-72531406D01*
X140539079Y-72441187D01*
X140487156Y-72422698D01*
X140429693Y-72381003D01*
X140403893Y-72314860D01*
X140417949Y-72245269D01*
X140467397Y-72194324D01*
X140529424Y-72177999D01*
X140802669Y-72177999D01*
X140809490Y-72177629D01*
X140860352Y-72172105D01*
X140875604Y-72168479D01*
X140996054Y-72123324D01*
X141011649Y-72114786D01*
X141113724Y-72038285D01*
X141126285Y-72025724D01*
X141202786Y-71923649D01*
X141211324Y-71908054D01*
X141256478Y-71787606D01*
X141260105Y-71772351D01*
X141265631Y-71721486D01*
X141266000Y-71714672D01*
X141266000Y-71392115D01*
X141261525Y-71376876D01*
X141260135Y-71375671D01*
X141252452Y-71374000D01*
X139168116Y-71374000D01*
X139152877Y-71378475D01*
X139151672Y-71379865D01*
X139150001Y-71387548D01*
X139150001Y-71714669D01*
X135821778Y-71714669D01*
X135882146Y-71585211D01*
X135885892Y-71574919D01*
X135943753Y-71358979D01*
X135945656Y-71348184D01*
X135965141Y-71125475D01*
X135965141Y-71114525D01*
X135945656Y-70891816D01*
X135943753Y-70881021D01*
X135934874Y-70847885D01*
X139150000Y-70847885D01*
X139154475Y-70863124D01*
X139155865Y-70864329D01*
X139163548Y-70866000D01*
X139935885Y-70866000D01*
X139951124Y-70861525D01*
X139952329Y-70860135D01*
X139954000Y-70852452D01*
X139954000Y-70847885D01*
X140462000Y-70847885D01*
X140466475Y-70863124D01*
X140467865Y-70864329D01*
X140475548Y-70866000D01*
X141247884Y-70866000D01*
X141263123Y-70861525D01*
X141264328Y-70860135D01*
X141265999Y-70852452D01*
X141265999Y-70525331D01*
X141265629Y-70518510D01*
X141260105Y-70467648D01*
X141256479Y-70452396D01*
X141211324Y-70331946D01*
X141202786Y-70316351D01*
X141126285Y-70214276D01*
X141113724Y-70201715D01*
X141011649Y-70125214D01*
X140996054Y-70116676D01*
X140875606Y-70071522D01*
X140860351Y-70067895D01*
X140809486Y-70062369D01*
X140802672Y-70062000D01*
X140480115Y-70062000D01*
X140464876Y-70066475D01*
X140463671Y-70067865D01*
X140462000Y-70075548D01*
X140462000Y-70847885D01*
X139954000Y-70847885D01*
X139954000Y-70080116D01*
X139949525Y-70064877D01*
X139948135Y-70063672D01*
X139940452Y-70062001D01*
X139613331Y-70062001D01*
X139606510Y-70062371D01*
X139555648Y-70067895D01*
X139540396Y-70071521D01*
X139419946Y-70116676D01*
X139404351Y-70125214D01*
X139302276Y-70201715D01*
X139289715Y-70214276D01*
X139213214Y-70316351D01*
X139204676Y-70331946D01*
X139159522Y-70452394D01*
X139155895Y-70467649D01*
X139150369Y-70518514D01*
X139150000Y-70525328D01*
X139150000Y-70847885D01*
X135934874Y-70847885D01*
X135885892Y-70665081D01*
X135882146Y-70654789D01*
X135787665Y-70452175D01*
X135782187Y-70442685D01*
X135740825Y-70383614D01*
X135730349Y-70375240D01*
X135716901Y-70382309D01*
X134992022Y-71107188D01*
X134984408Y-71121132D01*
X134254356Y-71121132D01*
X134255592Y-71118868D01*
X134255461Y-71117035D01*
X134251210Y-71110420D01*
X133522377Y-70381587D01*
X133510603Y-70375157D01*
X133498588Y-70384453D01*
X133457813Y-70442685D01*
X133452335Y-70452175D01*
X133357854Y-70654789D01*
X133354108Y-70665081D01*
X133296247Y-70881021D01*
X133294344Y-70891816D01*
X133274859Y-71114525D01*
X133274859Y-71125475D01*
X120417922Y-71125475D01*
X120417949Y-71123522D01*
X120417949Y-71123518D01*
X120417998Y-71120000D01*
X120398229Y-70918385D01*
X120396448Y-70912486D01*
X120396447Y-70912481D01*
X120341458Y-70730349D01*
X120339677Y-70724450D01*
X120244571Y-70545581D01*
X120240681Y-70540811D01*
X120240678Y-70540807D01*
X120120428Y-70393366D01*
X120120425Y-70393363D01*
X120116533Y-70388591D01*
X120109899Y-70383103D01*
X119965191Y-70263390D01*
X119965188Y-70263388D01*
X119960441Y-70259461D01*
X119782240Y-70163108D01*
X119659824Y-70125214D01*
X119594605Y-70105025D01*
X119594602Y-70105024D01*
X119588718Y-70103203D01*
X119582593Y-70102559D01*
X119582592Y-70102559D01*
X119393375Y-70082671D01*
X119393374Y-70082671D01*
X119387247Y-70082027D01*
X119303846Y-70089617D01*
X119191638Y-70099829D01*
X119191635Y-70099830D01*
X119185499Y-70100388D01*
X119179593Y-70102126D01*
X119179589Y-70102127D01*
X119034417Y-70144853D01*
X118991159Y-70157585D01*
X118974990Y-70166038D01*
X118882719Y-70214276D01*
X118811630Y-70251440D01*
X118653751Y-70378379D01*
X118523534Y-70533565D01*
X118425939Y-70711089D01*
X118364685Y-70904188D01*
X118363999Y-70910305D01*
X118363998Y-70910309D01*
X118362404Y-70924519D01*
X118342103Y-71105507D01*
X116587000Y-71105507D01*
X116587000Y-70009651D01*
X133875240Y-70009651D01*
X133882309Y-70023099D01*
X134607188Y-70747978D01*
X134621132Y-70755592D01*
X134622965Y-70755461D01*
X134629580Y-70751210D01*
X135358413Y-70022377D01*
X135364843Y-70010603D01*
X135355547Y-69998588D01*
X135297315Y-69957813D01*
X135287825Y-69952335D01*
X135085211Y-69857854D01*
X135074919Y-69854108D01*
X134858979Y-69796247D01*
X134848184Y-69794344D01*
X134625475Y-69774859D01*
X134614525Y-69774859D01*
X134391816Y-69794344D01*
X134381021Y-69796247D01*
X134165081Y-69854108D01*
X134154789Y-69857854D01*
X133952175Y-69952335D01*
X133942685Y-69957813D01*
X133883614Y-69999175D01*
X133875240Y-70009651D01*
X116587000Y-70009651D01*
X116587000Y-68707000D01*
X116607002Y-68638879D01*
X116660658Y-68592386D01*
X116713000Y-68581000D01*
X142367000Y-68581000D01*
X142435121Y-68601002D01*
G37*
%TD.AperFunction*%
%TD*%
M02*
